<?xml version="1.0" encoding="UTF-8" standalone="no"?>
<!DOCTYPE svg PUBLIC "-//W3C//DTD SVG 1.1//EN"
 "http://www.w3.org/Graphics/SVG/1.1/DTD/svg11.dtd">
<!-- Generated by graphviz version 2.26.3 (20100126.1600)
 -->
<!-- Title: g Pages: 1 -->
<svg width="124pt" height="198pt"
 viewBox="0.00 0.00 123.60 198.22" xmlns="http://www.w3.org/2000/svg" xmlns:xlink="http://www.w3.org/1999/xlink">
<g id="graph1" class="graph" transform="scale(1 1) rotate(0) translate(4 194.221)">
<title>g</title>
<polygon fill="white" stroke="white" points="-4,5 -4,-194.221 120.604,-194.221 120.604,5 -4,5"/>
<!-- V -->
<g id="node1" class="node"><title>V</title>
<ellipse fill="red" stroke="red" stroke-width="2" cx="55.775" cy="-96.9243" rx="3" ry="3.5"/>
</g>
<!-- 6 -->
<g id="node25" class="node"><title>6</title>
<ellipse fill="#000000" stroke="#000000" stroke-width="2" cx="21.444" cy="-13.6494" rx="3" ry="3.5"/>
</g>
<!-- V&#45;&gt;6 -->
<g id="edge34" class="edge"><title>V&#45;&gt;6</title>
<path fill="none" stroke="#888888" d="M54.4711,-93.7615C49.6278,-82.0133 32.5649,-40.6249 25.0469,-22.3887"/>
<polygon fill="#888888" stroke="#888888" points="26.9776,-21.5621 22.7492,-16.8154 23.0946,-23.1629 26.9776,-21.5621"/>
</g>
<!-- 7 -->
<g id="node27" class="node"><title>7</title>
<ellipse fill="#000000" stroke="#000000" stroke-width="2" cx="103.773" cy="-41.963" rx="3" ry="3.5"/>
</g>
<!-- V&#45;&gt;7 -->
<g id="edge36" class="edge"><title>V&#45;&gt;7</title>
<path fill="none" stroke="#888888" d="M58.09,-94.2734C65.1703,-86.166 86.706,-61.5062 97.4864,-49.162"/>
<polygon fill="#888888" stroke="#888888" points="99.2272,-50.3612 101.592,-44.4606 96.0637,-47.5985 99.2272,-50.3612"/>
</g>
<!-- 8 -->
<g id="node29" class="node"><title>8</title>
<ellipse fill="#000000" stroke="#000000" stroke-width="2" cx="4.5" cy="-52.3482" rx="3" ry="3.5"/>
</g>
<!-- V&#45;&gt;8 -->
<g id="edge38" class="edge"><title>V&#45;&gt;8</title>
<path fill="none" stroke="#888888" d="M53.3019,-94.7743C45.8751,-88.3178 23.5602,-68.9183 11.8526,-58.7402"/>
<polygon fill="#888888" stroke="#888888" points="12.975,-56.9333 7.06907,-54.5816 10.2194,-60.103 12.975,-56.9333"/>
</g>
<!-- 9 -->
<g id="node31" class="node"><title>9</title>
<ellipse fill="#000000" stroke="#000000" stroke-width="2" cx="71.6149" cy="-4.5" rx="3" ry="3.5"/>
</g>
<!-- V&#45;&gt;9 -->
<g id="edge40" class="edge"><title>V&#45;&gt;9</title>
<path fill="none" stroke="#888888" d="M56.3766,-93.414C58.621,-80.3179 66.553,-34.0357 69.9979,-13.9346"/>
<polygon fill="#888888" stroke="#888888" points="72.0689,-14.2823 71.0127,-8.01378 67.9292,-13.5728 72.0689,-14.2823"/>
</g>
<!-- 10 -->
<g id="node33" class="node"><title>10</title>
<ellipse fill="#000000" stroke="#000000" stroke-width="2" cx="58.8337" cy="-44.2002" rx="3" ry="3.5"/>
</g>
<!-- V&#45;&gt;10 -->
<g id="edge42" class="edge"><title>V&#45;&gt;10</title>
<path fill="none" stroke="#888888" d="M55.9949,-93.1325C56.4623,-85.0765 57.5674,-66.0281 58.2527,-54.215"/>
<polygon fill="#888888" stroke="#888888" points="60.3646,-54.0692 58.6157,-47.9576 56.1717,-53.8259 60.3646,-54.0692"/>
</g>
<!-- 1 -->
<g id="node3" class="node"><title>1</title>
<ellipse fill="#000000" stroke="#000000" stroke-width="2" cx="111.104" cy="-144.574" rx="3" ry="3.5"/>
</g>
<!-- 1&#45;&gt;V -->
<g id="edge11" class="edge"><title>1&#45;&gt;V</title>
<path fill="none" stroke="#888888" d="M108.435,-142.275C100.274,-135.247 75.4489,-113.868 63.0221,-103.166"/>
<polygon fill="#888888" stroke="#888888" points="64.2061,-101.414 58.2893,-99.0896 61.4653,-104.596 64.2061,-101.414"/>
</g>
<!-- 2 -->
<g id="node5" class="node"><title>2</title>
<ellipse fill="#000000" stroke="#000000" stroke-width="2" cx="65.5111" cy="-148.252" rx="3" ry="3.5"/>
</g>
<!-- 1&#45;&gt;2 -->
<g id="edge3" class="edge"><title>1&#45;&gt;2</title>
<path fill="none" stroke="#888888" d="M107.825,-144.838C100.99,-145.39 85.0048,-146.679 74.7561,-147.506"/>
<polygon fill="#888888" stroke="#888888" points="74.3318,-145.433 68.5202,-148.009 74.6696,-149.62 74.3318,-145.433"/>
</g>
<!-- 3 -->
<g id="node7" class="node"><title>3</title>
<ellipse fill="#000000" stroke="#000000" stroke-width="2" cx="34.6036" cy="-184.845" rx="3" ry="3.5"/>
</g>
<!-- 1&#45;&gt;3 -->
<g id="edge5" class="edge"><title>1&#45;&gt;3</title>
<path fill="none" stroke="#888888" d="M108.198,-146.103C97.5006,-151.735 60.0495,-171.45 43.0777,-180.384"/>
<polygon fill="#888888" stroke="#888888" points="41.8431,-178.66 37.512,-183.314 43.7996,-182.377 41.8431,-178.66"/>
</g>
<!-- 4 -->
<g id="node9" class="node"><title>4</title>
<ellipse fill="#000000" stroke="#000000" stroke-width="2" cx="85.2996" cy="-185.721" rx="3" ry="3.5"/>
</g>
<!-- 1&#45;&gt;4 -->
<g id="edge7" class="edge"><title>1&#45;&gt;4</title>
<path fill="none" stroke="#888888" d="M109.248,-147.533C105.38,-153.7 96.3359,-168.122 90.5353,-177.372"/>
<polygon fill="#888888" stroke="#888888" points="88.6876,-176.366 87.2789,-182.565 92.2458,-178.597 88.6876,-176.366"/>
</g>
<!-- 5 -->
<g id="node11" class="node"><title>5</title>
<ellipse fill="#000000" stroke="#000000" stroke-width="2" cx="11.2279" cy="-149.119" rx="3" ry="3.5"/>
</g>
<!-- 1&#45;&gt;5 -->
<g id="edge9" class="edge"><title>1&#45;&gt;5</title>
<path fill="none" stroke="#888888" d="M107.781,-144.725C94.0952,-145.348 41.8113,-147.727 20.4263,-148.7"/>
<polygon fill="#888888" stroke="#888888" points="20.1629,-146.61 14.2646,-148.981 20.3539,-150.806 20.1629,-146.61"/>
</g>
<!-- 2&#45;&gt;V -->
<g id="edge19" class="edge"><title>2&#45;&gt;V</title>
<path fill="none" stroke="#888888" d="M64.8109,-144.561C63.3232,-136.718 59.8057,-118.174 57.6243,-106.674"/>
<polygon fill="#888888" stroke="#888888" points="59.6503,-106.086 56.4688,-100.582 55.5238,-106.868 59.6503,-106.086"/>
</g>
<!-- 2&#45;&gt;3 -->
<g id="edge13" class="edge"><title>2&#45;&gt;3</title>
<path fill="none" stroke="#888888" d="M63.0858,-151.123C58.3683,-156.709 47.8197,-169.198 40.9684,-177.309"/>
<polygon fill="#888888" stroke="#888888" points="39.2004,-176.148 36.933,-182.087 42.409,-178.858 39.2004,-176.148"/>
</g>
<!-- 2&#45;&gt;4 -->
<g id="edge15" class="edge"><title>2&#45;&gt;4</title>
<path fill="none" stroke="#888888" d="M67.3373,-151.71C70.3273,-157.371 76.3589,-168.792 80.6053,-176.832"/>
<polygon fill="#888888" stroke="#888888" points="78.9875,-178.266 83.6465,-182.591 82.7014,-176.304 78.9875,-178.266"/>
</g>
<!-- 2&#45;&gt;5 -->
<g id="edge17" class="edge"><title>2&#45;&gt;5</title>
<path fill="none" stroke="#888888" d="M62.278,-148.304C54.1881,-148.433 32.8343,-148.774 20.4577,-148.972"/>
<polygon fill="#888888" stroke="#888888" points="20.3417,-146.873 14.376,-149.069 20.4088,-151.073 20.3417,-146.873"/>
</g>
<!-- 3&#45;&gt;V -->
<g id="edge25" class="edge"><title>3&#45;&gt;V</title>
<path fill="none" stroke="#888888" d="M35.5133,-181.067C38.6149,-168.187 48.8381,-125.732 53.4645,-106.519"/>
<polygon fill="#888888" stroke="#888888" points="55.5291,-106.915 54.8922,-100.59 51.4458,-105.932 55.5291,-106.915"/>
</g>
<!-- 3&#45;&gt;4 -->
<g id="edge21" class="edge"><title>3&#45;&gt;4</title>
<path fill="none" stroke="#888888" d="M37.6231,-184.897C44.9665,-185.024 64.0124,-185.353 75.6882,-185.555"/>
<polygon fill="#888888" stroke="#888888" points="75.7996,-187.657 81.8351,-185.661 75.8723,-183.457 75.7996,-187.657"/>
</g>
<!-- 3&#45;&gt;5 -->
<g id="edge23" class="edge"><title>3&#45;&gt;5</title>
<path fill="none" stroke="#888888" d="M32.7694,-182.041C29.3387,-176.798 21.8306,-165.323 16.6516,-157.408"/>
<polygon fill="#888888" stroke="#888888" points="18.2937,-156.082 13.2512,-152.211 14.7792,-158.382 18.2937,-156.082"/>
</g>
<!-- 4&#45;&gt;V -->
<g id="edge29" class="edge"><title>4&#45;&gt;V</title>
<path fill="none" stroke="#888888" d="M84.1783,-182.348C80.013,-169.821 65.339,-125.688 58.8734,-106.243"/>
<polygon fill="#888888" stroke="#888888" points="60.7833,-105.331 56.8974,-100.3 56.7978,-106.656 60.7833,-105.331"/>
</g>
<!-- 4&#45;&gt;5 -->
<g id="edge27" class="edge"><title>4&#45;&gt;5</title>
<path fill="none" stroke="#888888" d="M82.4864,-184.331C72.1282,-179.212 35.866,-161.294 19.4329,-153.173"/>
<polygon fill="#888888" stroke="#888888" points="20.3534,-151.286 14.0439,-150.51 18.4927,-155.051 20.3534,-151.286"/>
</g>
<!-- 5&#45;&gt;V -->
<g id="edge31" class="edge"><title>5&#45;&gt;V</title>
<path fill="none" stroke="#888888" d="M13.3765,-146.602C19.8287,-139.042 39.2156,-116.326 49.3871,-104.409"/>
<polygon fill="#888888" stroke="#888888" points="51.2452,-105.467 53.543,-99.5394 48.0505,-102.74 51.2452,-105.467"/>
</g>
<!-- 6&#45;&gt;7 -->
<g id="edge44" class="edge"><title>6&#45;&gt;7</title>
<path fill="none" stroke="#888888" d="M24.5709,-14.7248C36.0838,-18.6841 76.3886,-32.5452 94.6537,-38.8267"/>
<polygon fill="#888888" stroke="#888888" points="94.2866,-40.9211 100.643,-40.8866 95.6525,-36.9494 94.2866,-40.9211"/>
</g>
<!-- 6&#45;&gt;8 -->
<g id="edge46" class="edge"><title>6&#45;&gt;8</title>
<path fill="none" stroke="#888888" d="M19.8803,-17.2208C17.3201,-23.0681 12.1556,-34.8635 8.51952,-43.1679"/>
<polygon fill="#888888" stroke="#888888" points="6.39836,-42.7768 5.91549,-49.1153 10.2457,-44.4614 6.39836,-42.7768"/>
</g>
<!-- 6&#45;&gt;9 -->
<g id="edge48" class="edge"><title>6&#45;&gt;9</title>
<path fill="none" stroke="#888888" d="M24.4322,-13.1045C31.6995,-11.7792 50.5482,-8.34184 62.103,-6.23464"/>
<polygon fill="#888888" stroke="#888888" points="62.6603,-8.26773 68.1862,-5.12528 61.9067,-4.13587 62.6603,-8.26773"/>
</g>
<!-- 6&#45;&gt;10 -->
<g id="edge50" class="edge"><title>6&#45;&gt;10</title>
<path fill="none" stroke="#888888" d="M24.3779,-16.0467C30.0848,-20.7098 42.8458,-31.1366 51.134,-37.9088"/>
<polygon fill="#888888" stroke="#888888" points="50.0408,-39.7274 56.0158,-41.8977 52.6983,-36.475 50.0408,-39.7274"/>
</g>
<!-- 7&#45;&gt;8 -->
<g id="edge52" class="edge"><title>7&#45;&gt;8</title>
<path fill="none" stroke="#888888" d="M100.47,-42.3085C86.8674,-43.7316 34.8989,-49.1681 13.6429,-51.3917"/>
<polygon fill="#888888" stroke="#888888" points="13.2674,-49.3195 7.51846,-52.0324 13.7044,-53.4967 13.2674,-49.3195"/>
</g>
<!-- 7&#45;&gt;9 -->
<g id="edge54" class="edge"><title>7&#45;&gt;9</title>
<path fill="none" stroke="#888888" d="M101.25,-39.0233C96.3415,-33.3053 85.3659,-20.5193 78.2373,-12.2148"/>
<polygon fill="#888888" stroke="#888888" points="79.5401,-10.5084 74.0386,-7.32349 76.3532,-13.244 79.5401,-10.5084"/>
</g>
<!-- 7&#45;&gt;10 -->
<g id="edge56" class="edge"><title>7&#45;&gt;10</title>
<path fill="none" stroke="#888888" d="M100.541,-42.1239C93.8692,-42.456 78.3504,-43.2286 68.2393,-43.732"/>
<polygon fill="#888888" stroke="#888888" points="67.9245,-41.6449 62.0364,-44.0408 68.1334,-45.8397 67.9245,-41.6449"/>
</g>
<!-- 8&#45;&gt;9 -->
<g id="edge58" class="edge"><title>8&#45;&gt;9</title>
<path fill="none" stroke="#888888" d="M7.38384,-50.2922C17.1298,-43.344 49.0577,-20.5817 63.9006,-9.99974"/>
<polygon fill="#888888" stroke="#888888" points="65.15,-11.6881 68.8165,-6.49506 62.7118,-8.2682 65.15,-11.6881"/>
</g>
<!-- 8&#45;&gt;10 -->
<g id="edge60" class="edge"><title>8&#45;&gt;10</title>
<path fill="none" stroke="#888888" d="M7.73611,-51.8629C15.8335,-50.6486 37.2071,-47.4434 49.5953,-45.5856"/>
<polygon fill="#888888" stroke="#888888" points="50.0605,-47.6394 55.6826,-44.6727 49.4375,-43.4859 50.0605,-47.6394"/>
</g>
<!-- 9&#45;&gt;10 -->
<g id="edge62" class="edge"><title>9&#45;&gt;10</title>
<path fill="none" stroke="#888888" d="M70.5251,-7.88482C68.6198,-13.8032 64.6206,-26.2252 61.8332,-34.8833"/>
<polygon fill="#888888" stroke="#888888" points="59.7605,-34.469 59.9207,-40.8239 63.7584,-35.7562 59.7605,-34.469"/>
</g>
</g>
</svg>
