<?xml version="1.0" encoding="UTF-8" standalone="no"?>
<!DOCTYPE svg PUBLIC "-//W3C//DTD SVG 1.1//EN"
 "http://www.w3.org/Graphics/SVG/1.1/DTD/svg11.dtd">
<!-- Generated by graphviz version 2.26.3 (20100126.1600)
 -->
<!-- Title: g Pages: 1 -->
<svg width="1044pt" height="617pt"
 viewBox="0.00 0.00 1044.09 617.36" xmlns="http://www.w3.org/2000/svg" xmlns:xlink="http://www.w3.org/1999/xlink">
<g id="graph1" class="graph" transform="scale(1 1) rotate(0) translate(4 613.363)">
<title>g</title>
<polygon fill="white" stroke="white" points="-4,5 -4,-613.363 1041.09,-613.363 1041.09,5 -4,5"/>
<!-- V1 -->
<g id="node1" class="node"><title>V1</title>
<ellipse fill="red" stroke="red" stroke-width="2" cx="78.293" cy="-80.0832" rx="3" ry="3.5"/>
</g>
<!-- V2 -->
<g id="node2" class="node"><title>V2</title>
<ellipse fill="red" stroke="red" stroke-width="2" cx="138.056" cy="-130.415" rx="3" ry="3.5"/>
</g>
<!-- V1&#45;&gt;V2 -->
<g id="edge18" class="edge"><title>V1&#45;&gt;V2</title>
<path fill="none" stroke="#888888" d="M80.861,-82.2459C89.4626,-89.4901 117.468,-113.076 130.832,-124.331"/>
<polygon fill="#888888" stroke="#888888" points="129.622,-126.058 135.564,-128.316 132.328,-122.845 129.622,-126.058"/>
</g>
<!-- .4 -->
<g id="node25" class="node"><title>.4</title>
<ellipse fill="#000000" stroke="#000000" stroke-width="2" cx="69.8226" cy="-173.132" rx="3" ry="3.5"/>
</g>
<!-- V1&#45;&gt;.4 -->
<g id="edge14" class="edge"><title>V1&#45;&gt;.4</title>
<path fill="none" stroke="#888888" d="M77.9713,-83.6172C76.7763,-96.7442 72.5664,-142.99 70.7115,-163.367"/>
<polygon fill="#888888" stroke="#888888" points="68.5973,-163.429 70.1446,-169.595 72.78,-163.81 68.5973,-163.429"/>
</g>
<!-- .5 -->
<g id="node27" class="node"><title>.5</title>
<ellipse fill="#000000" stroke="#000000" stroke-width="2" cx="68.5283" cy="-134.289" rx="3" ry="3.5"/>
</g>
<!-- V1&#45;&gt;.5 -->
<g id="edge16" class="edge"><title>V1&#45;&gt;.5</title>
<path fill="none" stroke="#888888" d="M77.6523,-83.6398C76.1769,-91.8305 72.4966,-112.26 70.2872,-124.525"/>
<polygon fill="#888888" stroke="#888888" points="68.1812,-124.371 69.1841,-130.648 72.3147,-125.116 68.1812,-124.371"/>
</g>
<!-- V3 -->
<g id="node3" class="node"><title>V3</title>
<ellipse fill="red" stroke="red" stroke-width="2" cx="218.284" cy="-151.983" rx="3" ry="3.5"/>
</g>
<!-- V2&#45;&gt;V3 -->
<g id="edge30" class="edge"><title>V2&#45;&gt;V3</title>
<path fill="none" stroke="#888888" d="M141.103,-131.234C152.322,-134.25 191.598,-144.809 209.397,-149.593"/>
<polygon fill="#888888" stroke="#888888" points="208.894,-151.633 215.233,-151.163 209.984,-147.577 208.894,-151.633"/>
</g>
<!-- .6 -->
<g id="node33" class="node"><title>.6</title>
<ellipse fill="#000000" stroke="#000000" stroke-width="2" cx="160.811" cy="-185.206" rx="3" ry="3.5"/>
</g>
<!-- V2&#45;&gt;.6 -->
<g id="edge26" class="edge"><title>V2&#45;&gt;.6</title>
<path fill="none" stroke="#888888" d="M139.411,-133.678C142.834,-141.92 151.922,-163.802 157.087,-176.238"/>
<polygon fill="#888888" stroke="#888888" points="155.251,-177.293 159.491,-182.029 159.13,-175.682 155.251,-177.293"/>
</g>
<!-- .7 -->
<g id="node35" class="node"><title>.7</title>
<ellipse fill="#000000" stroke="#000000" stroke-width="2" cx="186.19" cy="-95.3589" rx="3" ry="3.5"/>
</g>
<!-- V2&#45;&gt;.7 -->
<g id="edge28" class="edge"><title>V2&#45;&gt;.7</title>
<path fill="none" stroke="#888888" d="M140.644,-128.53C147.694,-123.395 167.451,-109.006 178.487,-100.969"/>
<polygon fill="#888888" stroke="#888888" points="179.736,-102.657 183.35,-97.4274 177.263,-99.2623 179.736,-102.657"/>
</g>
<!-- V4 -->
<g id="node4" class="node"><title>V4</title>
<ellipse fill="red" stroke="red" stroke-width="2" cx="296.855" cy="-178.023" rx="3" ry="3.5"/>
</g>
<!-- V3&#45;&gt;V4 -->
<g id="edge42" class="edge"><title>V3&#45;&gt;V4</title>
<path fill="none" stroke="#888888" d="M221.268,-152.972C232.255,-156.613 270.72,-169.361 288.152,-175.138"/>
<polygon fill="#888888" stroke="#888888" points="287.512,-177.138 293.868,-177.033 288.833,-173.152 287.512,-177.138"/>
</g>
<!-- .8 -->
<g id="node41" class="node"><title>.8</title>
<ellipse fill="#000000" stroke="#000000" stroke-width="2" cx="268.884" cy="-119.633" rx="3" ry="3.5"/>
</g>
<!-- V3&#45;&gt;.8 -->
<g id="edge38" class="edge"><title>V3&#45;&gt;.8</title>
<path fill="none" stroke="#888888" d="M221.004,-150.243C228.416,-145.505 249.185,-132.227 260.786,-124.81"/>
<polygon fill="#888888" stroke="#888888" points="261.974,-126.543 265.898,-121.542 259.712,-123.004 261.974,-126.543"/>
</g>
<!-- .9 -->
<g id="node43" class="node"><title>.9</title>
<ellipse fill="#000000" stroke="#000000" stroke-width="2" cx="240.094" cy="-208.557" rx="3" ry="3.5"/>
</g>
<!-- V3&#45;&gt;.9 -->
<g id="edge40" class="edge"><title>V3&#45;&gt;.9</title>
<path fill="none" stroke="#888888" d="M219.583,-155.352C222.894,-163.941 231.735,-186.876 236.66,-199.651"/>
<polygon fill="#888888" stroke="#888888" points="234.711,-200.433 238.829,-205.276 238.63,-198.922 234.711,-200.433"/>
</g>
<!-- V5 -->
<g id="node5" class="node"><title>V5</title>
<ellipse fill="red" stroke="red" stroke-width="2" cx="374.635" cy="-186.311" rx="3" ry="3.5"/>
</g>
<!-- V4&#45;&gt;V5 -->
<g id="edge54" class="edge"><title>V4&#45;&gt;V5</title>
<path fill="none" stroke="#888888" d="M300.197,-178.379C311.392,-179.572 347.84,-183.455 365.233,-185.309"/>
<polygon fill="#888888" stroke="#888888" points="365.203,-187.417 371.391,-185.965 365.648,-183.241 365.203,-187.417"/>
</g>
<!-- .10 -->
<g id="node49" class="node"><title>.10</title>
<ellipse fill="#000000" stroke="#000000" stroke-width="2" cx="329.086" cy="-224.918" rx="3" ry="3.5"/>
</g>
<!-- V4&#45;&gt;.10 -->
<g id="edge50" class="edge"><title>V4&#45;&gt;.10</title>
<path fill="none" stroke="#888888" d="M298.775,-180.816C303.532,-187.737 316.012,-205.895 323.39,-216.631"/>
<polygon fill="#888888" stroke="#888888" points="321.754,-217.958 326.883,-221.713 325.215,-215.579 321.754,-217.958"/>
</g>
<!-- .11 -->
<g id="node51" class="node"><title>.11</title>
<ellipse fill="#000000" stroke="#000000" stroke-width="2" cx="322.913" cy="-261.166" rx="3" ry="3.5"/>
</g>
<!-- V4&#45;&gt;.11 -->
<g id="edge52" class="edge"><title>V4&#45;&gt;.11</title>
<path fill="none" stroke="#888888" d="M297.975,-181.595C301.759,-193.669 314.155,-233.222 319.918,-251.61"/>
<polygon fill="#888888" stroke="#888888" points="318.028,-252.602 321.826,-257.7 322.036,-251.346 318.028,-252.602"/>
</g>
<!-- V6 -->
<g id="node6" class="node"><title>V6</title>
<ellipse fill="red" stroke="red" stroke-width="2" cx="459.256" cy="-173.728" rx="3" ry="3.5"/>
</g>
<!-- V5&#45;&gt;V6 -->
<g id="edge66" class="edge"><title>V5&#45;&gt;V6</title>
<path fill="none" stroke="#888888" d="M377.848,-185.833C389.682,-184.073 431.109,-177.913 449.882,-175.122"/>
<polygon fill="#888888" stroke="#888888" points="450.413,-177.166 456.038,-174.206 449.795,-173.012 450.413,-177.166"/>
</g>
<!-- .12 -->
<g id="node57" class="node"><title>.12</title>
<ellipse fill="#000000" stroke="#000000" stroke-width="2" cx="411.792" cy="-133.395" rx="3" ry="3.5"/>
</g>
<!-- V5&#45;&gt;.12 -->
<g id="edge62" class="edge"><title>V5&#45;&gt;.12</title>
<path fill="none" stroke="#888888" d="M376.632,-183.466C382.177,-175.57 397.9,-153.178 406.316,-141.193"/>
<polygon fill="#888888" stroke="#888888" points="408.055,-142.371 409.784,-136.254 404.618,-139.958 408.055,-142.371"/>
</g>
<!-- .13 -->
<g id="node59" class="node"><title>.13</title>
<ellipse fill="#000000" stroke="#000000" stroke-width="2" cx="419.568" cy="-220.275" rx="3" ry="3.5"/>
</g>
<!-- V5&#45;&gt;.13 -->
<g id="edge64" class="edge"><title>V5&#45;&gt;.13</title>
<path fill="none" stroke="#888888" d="M377.311,-188.334C384.007,-193.395 401.683,-206.756 411.928,-214.5"/>
<polygon fill="#888888" stroke="#888888" points="410.91,-216.363 416.962,-218.306 413.442,-213.012 410.91,-216.363"/>
</g>
<!-- V7 -->
<g id="node7" class="node"><title>V7</title>
<ellipse fill="red" stroke="red" stroke-width="2" cx="537.56" cy="-184.412" rx="3" ry="3.5"/>
</g>
<!-- V6&#45;&gt;V7 -->
<g id="edge78" class="edge"><title>V6&#45;&gt;V7</title>
<path fill="none" stroke="#888888" d="M462.62,-174.187C473.89,-175.725 510.585,-180.731 528.095,-183.12"/>
<polygon fill="#888888" stroke="#888888" points="528.066,-185.236 534.295,-183.966 528.634,-181.074 528.066,-185.236"/>
</g>
<!-- .14 -->
<g id="node65" class="node"><title>.14</title>
<ellipse fill="#000000" stroke="#000000" stroke-width="2" cx="503.379" cy="-135.967" rx="3" ry="3.5"/>
</g>
<!-- V6&#45;&gt;.14 -->
<g id="edge74" class="edge"><title>V6&#45;&gt;.14</title>
<path fill="none" stroke="#888888" d="M461.884,-171.479C468.521,-165.799 486.142,-150.718 496.157,-142.147"/>
<polygon fill="#888888" stroke="#888888" points="497.627,-143.653 500.82,-138.157 494.896,-140.462 497.627,-143.653"/>
</g>
<!-- .15 -->
<g id="node67" class="node"><title>.15</title>
<ellipse fill="#000000" stroke="#000000" stroke-width="2" cx="512.219" cy="-101.001" rx="3" ry="3.5"/>
</g>
<!-- V6&#45;&gt;.15 -->
<g id="edge76" class="edge"><title>V6&#45;&gt;.15</title>
<path fill="none" stroke="#888888" d="M461.267,-170.966C468.739,-160.706 495.063,-124.56 506.661,-108.633"/>
<polygon fill="#888888" stroke="#888888" points="508.371,-109.852 510.206,-103.766 504.976,-107.38 508.371,-109.852"/>
</g>
<!-- V8 -->
<g id="node8" class="node"><title>V8</title>
<ellipse fill="red" stroke="red" stroke-width="2" cx="616.432" cy="-214.09" rx="3" ry="3.5"/>
</g>
<!-- V7&#45;&gt;V8 -->
<g id="edge90" class="edge"><title>V7&#45;&gt;V8</title>
<path fill="none" stroke="#888888" d="M540.555,-185.539C551.585,-189.689 590.197,-204.218 607.695,-210.803"/>
<polygon fill="#888888" stroke="#888888" points="607.078,-212.814 613.433,-212.962 608.557,-208.883 607.078,-212.814"/>
</g>
<!-- .16 -->
<g id="node73" class="node"><title>.16</title>
<ellipse fill="#000000" stroke="#000000" stroke-width="2" cx="593.759" cy="-155.031" rx="3" ry="3.5"/>
</g>
<!-- V7&#45;&gt;.16 -->
<g id="edge86" class="edge"><title>V7&#45;&gt;.16</title>
<path fill="none" stroke="#888888" d="M540.581,-182.832C548.969,-178.447 572.756,-166.011 585.484,-159.357"/>
<polygon fill="#888888" stroke="#888888" points="586.647,-161.119 590.991,-156.478 584.701,-157.397 586.647,-161.119"/>
</g>
<!-- .17 -->
<g id="node75" class="node"><title>.17</title>
<ellipse fill="#000000" stroke="#000000" stroke-width="2" cx="562.029" cy="-238.987" rx="3" ry="3.5"/>
</g>
<!-- V7&#45;&gt;.17 -->
<g id="edge88" class="edge"><title>V7&#45;&gt;.17</title>
<path fill="none" stroke="#888888" d="M539.017,-187.662C542.698,-195.872 552.47,-217.667 558.024,-230.054"/>
<polygon fill="#888888" stroke="#888888" points="556.239,-231.207 560.61,-235.822 560.072,-229.488 556.239,-231.207"/>
</g>
<!-- V9 -->
<g id="node9" class="node"><title>V9</title>
<ellipse fill="red" stroke="red" stroke-width="2" cx="682.007" cy="-257.668" rx="3" ry="3.5"/>
</g>
<!-- V8&#45;&gt;V9 -->
<g id="edge102" class="edge"><title>V8&#45;&gt;V9</title>
<path fill="none" stroke="#888888" d="M619.249,-215.963C628.687,-222.235 659.417,-242.656 674.08,-252.4"/>
<polygon fill="#888888" stroke="#888888" points="673.113,-254.279 679.272,-255.851 675.437,-250.781 673.113,-254.279"/>
</g>
<!-- .18 -->
<g id="node81" class="node"><title>.18</title>
<ellipse fill="#000000" stroke="#000000" stroke-width="2" cx="674.345" cy="-200.062" rx="3" ry="3.5"/>
</g>
<!-- V8&#45;&gt;.18 -->
<g id="edge98" class="edge"><title>V8&#45;&gt;.18</title>
<path fill="none" stroke="#888888" d="M619.545,-213.336C628.03,-211.281 651.807,-205.521 665.084,-202.305"/>
<polygon fill="#888888" stroke="#888888" points="665.879,-204.273 671.216,-200.82 664.89,-200.191 665.879,-204.273"/>
</g>
<!-- .19 -->
<g id="node83" class="node"><title>.19</title>
<ellipse fill="#000000" stroke="#000000" stroke-width="2" cx="690.396" cy="-167.285" rx="3" ry="3.5"/>
</g>
<!-- V8&#45;&gt;.19 -->
<g id="edge100" class="edge"><title>V8&#45;&gt;.19</title>
<path fill="none" stroke="#888888" d="M619.241,-212.313C629.584,-205.767 665.794,-182.854 682.203,-172.47"/>
<polygon fill="#888888" stroke="#888888" points="683.637,-174.047 687.584,-169.064 681.391,-170.498 683.637,-174.047"/>
</g>
<!-- V10 -->
<g id="node10" class="node"><title>V10</title>
<ellipse fill="red" stroke="red" stroke-width="2" cx="744.097" cy="-315.121" rx="3" ry="3.5"/>
</g>
<!-- V9&#45;&gt;V10 -->
<g id="edge114" class="edge"><title>V9&#45;&gt;V10</title>
<path fill="none" stroke="#888888" d="M684.365,-259.85C693.047,-267.884 723.444,-296.011 737.219,-308.757"/>
<polygon fill="#888888" stroke="#888888" points="735.906,-310.403 741.737,-312.937 738.759,-307.321 735.906,-310.403"/>
</g>
<!-- .20 -->
<g id="node89" class="node"><title>.20</title>
<ellipse fill="#000000" stroke="#000000" stroke-width="2" cx="685.226" cy="-319.508" rx="3" ry="3.5"/>
</g>
<!-- V9&#45;&gt;.20 -->
<g id="edge110" class="edge"><title>V9&#45;&gt;.20</title>
<path fill="none" stroke="#888888" d="M682.198,-261.351C682.687,-270.739 683.992,-295.808 684.719,-309.773"/>
<polygon fill="#888888" stroke="#888888" points="682.63,-310.039 685.039,-315.922 686.824,-309.82 682.63,-310.039"/>
</g>
<!-- .21 -->
<g id="node91" class="node"><title>.21</title>
<ellipse fill="#000000" stroke="#000000" stroke-width="2" cx="744.902" cy="-252.673" rx="3" ry="3.5"/>
</g>
<!-- V9&#45;&gt;.21 -->
<g id="edge112" class="edge"><title>V9&#45;&gt;.21</title>
<path fill="none" stroke="#888888" d="M685.04,-257.427C694.067,-256.71 721.026,-254.569 735.489,-253.42"/>
<polygon fill="#888888" stroke="#888888" points="735.936,-255.491 741.751,-252.923 735.604,-251.305 735.936,-255.491"/>
</g>
<!-- V11 -->
<g id="node11" class="node"><title>V11</title>
<ellipse fill="red" stroke="red" stroke-width="2" cx="789.496" cy="-380.493" rx="3" ry="3.5"/>
</g>
<!-- V10&#45;&gt;V11 -->
<g id="edge126" class="edge"><title>V10&#45;&gt;V11</title>
<path fill="none" stroke="#888888" d="M746.048,-317.93C752.582,-327.339 773.857,-357.973 784.009,-372.592"/>
<polygon fill="#888888" stroke="#888888" points="782.456,-374.037 787.603,-377.768 785.906,-371.642 782.456,-374.037"/>
</g>
<!-- .22 -->
<g id="node97" class="node"><title>.22</title>
<ellipse fill="#000000" stroke="#000000" stroke-width="2" cx="828.728" cy="-298.722" rx="3" ry="3.5"/>
</g>
<!-- V10&#45;&gt;.22 -->
<g id="edge122" class="edge"><title>V10&#45;&gt;.22</title>
<path fill="none" stroke="#888888" d="M747.311,-314.499C759.146,-312.205 800.578,-304.177 819.353,-300.538"/>
<polygon fill="#888888" stroke="#888888" points="820.02,-302.548 825.51,-299.345 819.221,-298.425 820.02,-302.548"/>
</g>
<!-- .23 -->
<g id="node99" class="node"><title>.23</title>
<ellipse fill="#000000" stroke="#000000" stroke-width="2" cx="802.848" cy="-325.366" rx="3" ry="3.5"/>
</g>
<!-- V10&#45;&gt;.23 -->
<g id="edge124" class="edge"><title>V10&#45;&gt;.23</title>
<path fill="none" stroke="#888888" d="M747.256,-315.672C755.863,-317.173 779.984,-321.379 793.453,-323.727"/>
<polygon fill="#888888" stroke="#888888" points="793.402,-325.85 799.673,-324.812 794.123,-321.713 793.402,-325.85"/>
</g>
<!-- V12 -->
<g id="node12" class="node"><title>V12</title>
<ellipse fill="red" stroke="red" stroke-width="2" cx="824.465" cy="-458.852" rx="3" ry="3.5"/>
</g>
<!-- V11&#45;&gt;V12 -->
<g id="edge138" class="edge"><title>V11&#45;&gt;V12</title>
<path fill="none" stroke="#888888" d="M790.999,-383.86C796.077,-395.239 812.712,-432.516 820.446,-449.845"/>
<polygon fill="#888888" stroke="#888888" points="818.644,-450.961 823.007,-455.585 822.48,-449.25 818.644,-450.961"/>
</g>
<!-- .24 -->
<g id="node105" class="node"><title>.24</title>
<ellipse fill="#000000" stroke="#000000" stroke-width="2" cx="849.047" cy="-402.722" rx="3" ry="3.5"/>
</g>
<!-- V11&#45;&gt;.24 -->
<g id="edge134" class="edge"><title>V11&#45;&gt;.24</title>
<path fill="none" stroke="#888888" d="M792.368,-381.565C800.915,-384.756 826.441,-394.284 840.134,-399.395"/>
<polygon fill="#888888" stroke="#888888" points="839.708,-401.478 846.063,-401.609 841.177,-397.543 839.708,-401.478"/>
</g>
<!-- .25 -->
<g id="node107" class="node"><title>.25</title>
<ellipse fill="#000000" stroke="#000000" stroke-width="2" cx="770.507" cy="-440.788" rx="3" ry="3.5"/>
</g>
<!-- V11&#45;&gt;.25 -->
<g id="edge136" class="edge"><title>V11&#45;&gt;.25</title>
<path fill="none" stroke="#888888" d="M788.365,-384.084C785.482,-393.238 777.784,-417.68 773.496,-431.296"/>
<polygon fill="#888888" stroke="#888888" points="771.408,-430.937 771.608,-437.291 775.414,-432.199 771.408,-430.937"/>
</g>
<!-- V13 -->
<g id="node13" class="node"><title>V13</title>
<ellipse fill="red" stroke="red" stroke-width="2" cx="878.306" cy="-518.039" rx="3" ry="3.5"/>
</g>
<!-- V12&#45;&gt;V13 -->
<g id="edge150" class="edge"><title>V12&#45;&gt;V13</title>
<path fill="none" stroke="#888888" d="M826.779,-461.395C834.528,-469.914 859.758,-497.649 871.798,-510.885"/>
<polygon fill="#888888" stroke="#888888" points="870.47,-512.546 876.061,-515.571 873.577,-509.719 870.47,-512.546"/>
</g>
<!-- .26 -->
<g id="node113" class="node"><title>.26</title>
<ellipse fill="#000000" stroke="#000000" stroke-width="2" cx="793.043" cy="-540.349" rx="3" ry="3.5"/>
</g>
<!-- V12&#45;&gt;.26 -->
<g id="edge146" class="edge"><title>V12&#45;&gt;.26</title>
<path fill="none" stroke="#888888" d="M823.115,-462.354C818.552,-474.188 803.604,-512.958 796.655,-530.981"/>
<polygon fill="#888888" stroke="#888888" points="794.552,-530.597 794.353,-536.951 798.471,-532.108 794.552,-530.597"/>
</g>
<!-- .27 -->
<g id="node115" class="node"><title>.27</title>
<ellipse fill="#000000" stroke="#000000" stroke-width="2" cx="824.807" cy="-519.33" rx="3" ry="3.5"/>
</g>
<!-- V12&#45;&gt;.27 -->
<g id="edge148" class="edge"><title>V12&#45;&gt;.27</title>
<path fill="none" stroke="#888888" d="M824.485,-462.454C824.537,-471.635 824.676,-496.152 824.753,-509.809"/>
<polygon fill="#888888" stroke="#888888" points="822.653,-509.834 824.787,-515.822 826.853,-509.81 822.653,-509.834"/>
</g>
<!-- V14 -->
<g id="node14" class="node"><title>V14</title>
<ellipse fill="red" stroke="red" stroke-width="2" cx="954.128" cy="-543.572" rx="3" ry="3.5"/>
</g>
<!-- V13&#45;&gt;V14 -->
<g id="edge162" class="edge"><title>V13&#45;&gt;V14</title>
<path fill="none" stroke="#888888" d="M881.564,-519.136C892.477,-522.811 928.008,-534.776 944.963,-540.486"/>
<polygon fill="#888888" stroke="#888888" points="944.61,-542.583 950.967,-542.508 945.951,-538.603 944.61,-542.583"/>
</g>
<!-- .28 -->
<g id="node121" class="node"><title>.28</title>
<ellipse fill="#000000" stroke="#000000" stroke-width="2" cx="883.033" cy="-601.161" rx="3" ry="3.5"/>
</g>
<!-- V13&#45;&gt;.28 -->
<g id="edge158" class="edge"><title>V13&#45;&gt;.28</title>
<path fill="none" stroke="#888888" d="M878.509,-521.61C879.189,-533.571 881.403,-572.507 882.461,-591.1"/>
<polygon fill="#888888" stroke="#888888" points="880.377,-591.447 882.814,-597.318 884.57,-591.209 880.377,-591.447"/>
</g>
<!-- .29 -->
<g id="node123" class="node"><title>.29</title>
<ellipse fill="#000000" stroke="#000000" stroke-width="2" cx="912.404" cy="-574.146" rx="3" ry="3.5"/>
</g>
<!-- V13&#45;&gt;.29 -->
<g id="edge160" class="edge"><title>V13&#45;&gt;.29</title>
<path fill="none" stroke="#888888" d="M880.139,-521.055C885.227,-529.427 899.656,-553.17 907.379,-565.878"/>
<polygon fill="#888888" stroke="#888888" points="905.651,-567.078 910.562,-571.115 909.24,-564.897 905.651,-567.078"/>
</g>
<!-- .30 -->
<g id="node129" class="node"><title>.30</title>
<ellipse fill="#000000" stroke="#000000" stroke-width="2" cx="999.815" cy="-604.863" rx="3" ry="3.5"/>
</g>
<!-- V14&#45;&gt;.30 -->
<g id="edge170" class="edge"><title>V14&#45;&gt;.30</title>
<path fill="none" stroke="#888888" d="M956.332,-546.529C963.132,-555.651 983.94,-583.566 994.106,-597.203"/>
<polygon fill="#888888" stroke="#888888" points="992.469,-598.522 997.739,-602.077 995.837,-596.012 992.469,-598.522"/>
</g>
<!-- .31 -->
<g id="node131" class="node"><title>.31</title>
<ellipse fill="#000000" stroke="#000000" stroke-width="2" cx="1026.22" cy="-521.858" rx="3" ry="3.5"/>
</g>
<!-- V14&#45;&gt;.31 -->
<g id="edge172" class="edge"><title>V14&#45;&gt;.31</title>
<path fill="none" stroke="#888888" d="M957.226,-542.639C967.509,-539.542 1000.78,-529.519 1017.07,-524.614"/>
<polygon fill="#888888" stroke="#888888" points="1018.08,-526.504 1023.21,-522.763 1016.86,-522.483 1018.08,-526.504"/>
</g>
<!-- .32 -->
<g id="node133" class="node"><title>.32</title>
<ellipse fill="#000000" stroke="#000000" stroke-width="2" cx="1031.59" cy="-568.114" rx="3" ry="3.5"/>
</g>
<!-- V14&#45;&gt;.32 -->
<g id="edge174" class="edge"><title>V14&#45;&gt;.32</title>
<path fill="none" stroke="#888888" d="M957.07,-544.505C967.806,-547.906 1005.15,-559.739 1022.55,-565.249"/>
<polygon fill="#888888" stroke="#888888" points="1022.29,-567.371 1028.64,-567.181 1023.56,-563.367 1022.29,-567.371"/>
</g>
<!-- .1 -->
<g id="node15" class="node"><title>.1</title>
<ellipse fill="#000000" stroke="#000000" stroke-width="2" cx="4.5" cy="-67.8926" rx="3" ry="3.5"/>
</g>
<!-- .1&#45;&gt;V1 -->
<g id="edge6" class="edge"><title>.1&#45;&gt;V1</title>
<path fill="none" stroke="#888888" d="M7.67079,-68.4164C18.1969,-70.1553 52.2564,-75.7819 68.9272,-78.536"/>
<polygon fill="#888888" stroke="#888888" points="68.9541,-80.6688 75.2162,-79.5749 69.6387,-76.525 68.9541,-80.6688"/>
</g>
<!-- .2 -->
<g id="node17" class="node"><title>.2</title>
<ellipse fill="#000000" stroke="#000000" stroke-width="2" cx="21.6961" cy="-22.1047" rx="3" ry="3.5"/>
</g>
<!-- .1&#45;&gt;.2 -->
<g id="edge2" class="edge"><title>.1&#45;&gt;.2</title>
<path fill="none" stroke="#888888" d="M5.7367,-64.5996C8.33939,-57.6695 14.4599,-41.3723 18.3201,-31.094"/>
<polygon fill="#888888" stroke="#888888" points="20.327,-31.7231 20.4706,-25.3678 16.3951,-30.2464 20.327,-31.7231"/>
</g>
<!-- .3 -->
<g id="node19" class="node"><title>.3</title>
<ellipse fill="#000000" stroke="#000000" stroke-width="2" cx="64.6498" cy="-4.5" rx="3" ry="3.5"/>
</g>
<!-- .1&#45;&gt;.3 -->
<g id="edge4" class="edge"><title>.1&#45;&gt;.3</title>
<path fill="none" stroke="#888888" d="M6.78449,-65.4849C15.1958,-56.6201 44.6425,-25.5859 57.9869,-11.5221"/>
<polygon fill="#888888" stroke="#888888" points="59.7565,-12.708 62.363,-6.91006 56.7097,-9.81713 59.7565,-12.708"/>
</g>
<!-- .2&#45;&gt;V1 -->
<g id="edge10" class="edge"><title>.2&#45;&gt;V1</title>
<path fill="none" stroke="#888888" d="M24.128,-24.596C32.2739,-32.9407 58.7959,-60.1101 71.452,-73.0752"/>
<polygon fill="#888888" stroke="#888888" points="70.2393,-74.8392 75.9332,-77.6657 73.2447,-71.9053 70.2393,-74.8392"/>
</g>
<!-- .2&#45;&gt;.3 -->
<g id="edge8" class="edge"><title>.2&#45;&gt;.3</title>
<path fill="none" stroke="#888888" d="M24.7852,-20.8386C31.287,-18.1739 46.5776,-11.9069 56.2196,-7.95516"/>
<polygon fill="#888888" stroke="#888888" points="57.0595,-9.88052 61.8148,-5.6619 55.4666,-5.99426 57.0595,-9.88052"/>
</g>
<!-- .3&#45;&gt;V1 -->
<g id="edge12" class="edge"><title>.3&#45;&gt;V1</title>
<path fill="none" stroke="#888888" d="M65.3078,-8.14553C67.3385,-19.3953 73.5524,-53.8201 76.5881,-70.6377"/>
<polygon fill="#888888" stroke="#888888" points="74.5405,-71.1169 77.673,-76.6485 78.6738,-70.3708 74.5405,-71.1169"/>
</g>
<!-- .4&#45;&gt;V2 -->
<g id="edge22" class="edge"><title>.4&#45;&gt;V2</title>
<path fill="none" stroke="#888888" d="M72.7545,-171.297C82.5752,-165.148 114.55,-145.131 129.808,-135.578"/>
<polygon fill="#888888" stroke="#888888" points="131.24,-137.16 135.211,-132.196 129.011,-133.6 131.24,-137.16"/>
</g>
<!-- .4&#45;&gt;.5 -->
<g id="edge20" class="edge"><title>.4&#45;&gt;.5</title>
<path fill="none" stroke="#888888" d="M69.7031,-169.547C69.5115,-163.796 69.1288,-152.31 68.8521,-144.008"/>
<polygon fill="#888888" stroke="#888888" points="70.95,-143.905 68.6512,-137.978 66.7523,-144.045 70.95,-143.905"/>
</g>
<!-- .5&#45;&gt;V2 -->
<g id="edge24" class="edge"><title>.5&#45;&gt;V2</title>
<path fill="none" stroke="#888888" d="M71.8817,-134.102C82.0454,-133.536 112.773,-131.824 128.523,-130.946"/>
<polygon fill="#888888" stroke="#888888" points="129.023,-133.022 134.896,-130.591 128.789,-128.828 129.023,-133.022"/>
</g>
<!-- .6&#45;&gt;V3 -->
<g id="edge34" class="edge"><title>.6&#45;&gt;V3</title>
<path fill="none" stroke="#888888" d="M163.583,-183.604C171.908,-178.792 196.92,-164.333 210.042,-156.747"/>
<polygon fill="#888888" stroke="#888888" points="211.26,-158.468 215.404,-153.647 209.158,-154.832 211.26,-158.468"/>
</g>
<!-- .6&#45;&gt;.7 -->
<g id="edge32" class="edge"><title>.6&#45;&gt;.7</title>
<path fill="none" stroke="#888888" d="M161.775,-181.794C165.355,-169.119 177.969,-124.463 183.526,-104.788"/>
<polygon fill="#888888" stroke="#888888" points="185.615,-105.12 185.225,-98.7748 181.573,-103.978 185.615,-105.12"/>
</g>
<!-- .7&#45;&gt;V3 -->
<g id="edge36" class="edge"><title>.7&#45;&gt;V3</title>
<path fill="none" stroke="#888888" d="M187.915,-98.4033C192.704,-106.852 206.285,-130.813 213.554,-143.638"/>
<polygon fill="#888888" stroke="#888888" points="211.764,-144.739 216.55,-148.923 215.418,-142.668 211.764,-144.739"/>
</g>
<!-- .8&#45;&gt;V4 -->
<g id="edge46" class="edge"><title>.8&#45;&gt;V4</title>
<path fill="none" stroke="#888888" d="M270.388,-122.772C274.561,-131.485 286.398,-156.193 292.733,-169.418"/>
<polygon fill="#888888" stroke="#888888" points="290.858,-170.364 295.344,-174.868 294.646,-168.549 290.858,-170.364"/>
</g>
<!-- .8&#45;&gt;.9 -->
<g id="edge44" class="edge"><title>.8&#45;&gt;.9</title>
<path fill="none" stroke="#888888" d="M267.79,-123.01C263.729,-135.556 249.42,-179.752 243.115,-199.225"/>
<polygon fill="#888888" stroke="#888888" points="241.039,-198.821 241.188,-205.177 245.034,-200.115 241.039,-198.821"/>
</g>
<!-- .9&#45;&gt;V4 -->
<g id="edge48" class="edge"><title>.9&#45;&gt;V4</title>
<path fill="none" stroke="#888888" d="M242.832,-207.085C251.053,-202.662 275.756,-189.373 288.716,-182.401"/>
<polygon fill="#888888" stroke="#888888" points="289.722,-184.245 294.011,-179.553 287.732,-180.546 289.722,-184.245"/>
</g>
<!-- .10&#45;&gt;V5 -->
<g id="edge58" class="edge"><title>.10&#45;&gt;V5</title>
<path fill="none" stroke="#888888" d="M331.535,-222.842C338.206,-217.187 356.902,-201.341 367.345,-192.489"/>
<polygon fill="#888888" stroke="#888888" points="368.728,-194.07 371.947,-188.589 366.012,-190.866 368.728,-194.07"/>
</g>
<!-- .10&#45;&gt;.11 -->
<g id="edge56" class="edge"><title>.10&#45;&gt;.11</title>
<path fill="none" stroke="#888888" d="M328.471,-228.526C327.575,-233.791 325.875,-243.772 324.59,-251.317"/>
<polygon fill="#888888" stroke="#888888" points="322.499,-251.088 323.562,-257.356 326.639,-251.793 322.499,-251.088"/>
</g>
<!-- .11&#45;&gt;V5 -->
<g id="edge60" class="edge"><title>.11&#45;&gt;V5</title>
<path fill="none" stroke="#888888" d="M324.877,-258.323C332.174,-247.763 357.88,-210.559 369.207,-194.166"/>
<polygon fill="#888888" stroke="#888888" points="370.985,-195.287 372.668,-189.156 367.53,-192.899 370.985,-195.287"/>
</g>
<!-- .12&#45;&gt;V6 -->
<g id="edge70" class="edge"><title>.12&#45;&gt;V6</title>
<path fill="none" stroke="#888888" d="M414.344,-135.564C421.296,-141.471 440.778,-158.026 451.66,-167.274"/>
<polygon fill="#888888" stroke="#888888" points="450.523,-169.063 456.455,-171.348 453.243,-165.863 450.523,-169.063"/>
</g>
<!-- .12&#45;&gt;.13 -->
<g id="edge68" class="edge"><title>.12&#45;&gt;.13</title>
<path fill="none" stroke="#888888" d="M412.126,-137.128C413.26,-149.8 416.987,-191.441 418.697,-210.543"/>
<polygon fill="#888888" stroke="#888888" points="416.617,-210.864 419.244,-216.653 420.801,-210.49 416.617,-210.864"/>
</g>
<!-- .13&#45;&gt;V6 -->
<g id="edge72" class="edge"><title>.13&#45;&gt;V6</title>
<path fill="none" stroke="#888888" d="M421.702,-217.773C427.515,-210.955 443.805,-191.849 452.904,-181.177"/>
<polygon fill="#888888" stroke="#888888" points="454.619,-182.403 456.914,-176.475 451.423,-179.678 454.619,-182.403"/>
</g>
<!-- .14&#45;&gt;V7 -->
<g id="edge82" class="edge"><title>.14&#45;&gt;V7</title>
<path fill="none" stroke="#888888" d="M505.415,-138.852C510.557,-146.139 524.207,-165.486 531.965,-176.482"/>
<polygon fill="#888888" stroke="#888888" points="530.403,-177.91 535.578,-181.602 533.834,-175.489 530.403,-177.91"/>
</g>
<!-- .14&#45;&gt;.15 -->
<g id="edge80" class="edge"><title>.14&#45;&gt;.15</title>
<path fill="none" stroke="#888888" d="M504.259,-132.486C505.543,-127.408 507.977,-117.78 509.817,-110.502"/>
<polygon fill="#888888" stroke="#888888" points="511.855,-111.008 511.29,-104.677 507.783,-109.979 511.855,-111.008"/>
</g>
<!-- .15&#45;&gt;V7 -->
<g id="edge84" class="edge"><title>.15&#45;&gt;V7</title>
<path fill="none" stroke="#888888" d="M513.308,-104.585C516.988,-116.697 529.043,-156.377 534.647,-174.824"/>
<polygon fill="#888888" stroke="#888888" points="532.75,-175.803 536.503,-180.934 536.768,-174.582 532.75,-175.803"/>
</g>
<!-- .16&#45;&gt;V8 -->
<g id="edge94" class="edge"><title>.16&#45;&gt;V8</title>
<path fill="none" stroke="#888888" d="M595.109,-158.548C598.551,-167.515 607.743,-191.456 612.862,-204.793"/>
<polygon fill="#888888" stroke="#888888" points="611.006,-205.816 615.117,-210.665 614.927,-204.311 611.006,-205.816"/>
</g>
<!-- .16&#45;&gt;.17 -->
<g id="edge92" class="edge"><title>.16&#45;&gt;.17</title>
<path fill="none" stroke="#888888" d="M592.396,-158.638C587.747,-170.938 572.426,-211.479 565.492,-229.825"/>
<polygon fill="#888888" stroke="#888888" points="563.509,-229.132 563.352,-235.487 567.438,-230.617 563.509,-229.132"/>
</g>
<!-- .17&#45;&gt;V8 -->
<g id="edge96" class="edge"><title>.17&#45;&gt;V8</title>
<path fill="none" stroke="#888888" d="M564.954,-237.649C572.924,-234.001 595.26,-223.779 607.732,-218.072"/>
<polygon fill="#888888" stroke="#888888" points="608.91,-219.842 613.492,-215.435 607.162,-216.023 608.91,-219.842"/>
</g>
<!-- .18&#45;&gt;V9 -->
<g id="edge106" class="edge"><title>.18&#45;&gt;V9</title>
<path fill="none" stroke="#888888" d="M674.848,-203.842C676.028,-212.712 679.004,-235.089 680.724,-248.026"/>
<polygon fill="#888888" stroke="#888888" points="678.659,-248.426 681.532,-254.097 682.822,-247.872 678.659,-248.426"/>
</g>
<!-- .18&#45;&gt;.19 -->
<g id="edge104" class="edge"><title>.18&#45;&gt;.19</title>
<path fill="none" stroke="#888888" d="M675.943,-196.799C678.323,-191.94 682.879,-182.636 686.242,-175.768"/>
<polygon fill="#888888" stroke="#888888" points="688.146,-176.655 688.899,-170.343 684.374,-174.808 688.146,-176.655"/>
</g>
<!-- .19&#45;&gt;V9 -->
<g id="edge108" class="edge"><title>.19&#45;&gt;V9</title>
<path fill="none" stroke="#888888" d="M690.036,-171.169C688.807,-184.41 684.755,-228.054 682.922,-247.804"/>
<polygon fill="#888888" stroke="#888888" points="680.82,-247.731 682.356,-253.899 685.002,-248.119 680.82,-247.731"/>
</g>
<!-- .20&#45;&gt;V10 -->
<g id="edge118" class="edge"><title>.20&#45;&gt;V10</title>
<path fill="none" stroke="#888888" d="M688.391,-319.272C697.016,-318.629 721.187,-316.828 734.683,-315.823"/>
<polygon fill="#888888" stroke="#888888" points="735.089,-317.898 740.916,-315.358 734.777,-313.71 735.089,-317.898"/>
</g>
<!-- .20&#45;&gt;.21 -->
<g id="edge116" class="edge"><title>.20&#45;&gt;.21</title>
<path fill="none" stroke="#888888" d="M687.492,-316.97C695.838,-307.623 725.053,-274.904 738.292,-260.076"/>
<polygon fill="#888888" stroke="#888888" points="740.204,-261.088 742.634,-255.214 737.071,-258.291 740.204,-261.088"/>
</g>
<!-- .21&#45;&gt;V10 -->
<g id="edge120" class="edge"><title>.21&#45;&gt;V10</title>
<path fill="none" stroke="#888888" d="M744.854,-256.392C744.732,-265.873 744.406,-291.188 744.224,-305.291"/>
<polygon fill="#888888" stroke="#888888" points="742.121,-305.473 744.144,-311.5 746.321,-305.527 742.121,-305.473"/>
</g>
<!-- .22&#45;&gt;V11 -->
<g id="edge130" class="edge"><title>.22&#45;&gt;V11</title>
<path fill="none" stroke="#888888" d="M827.238,-301.827C821.703,-313.363 802.205,-354.005 793.613,-371.912"/>
<polygon fill="#888888" stroke="#888888" points="791.69,-371.067 790.988,-377.385 795.476,-372.883 791.69,-371.067"/>
</g>
<!-- .22&#45;&gt;.23 -->
<g id="edge128" class="edge"><title>.22&#45;&gt;.23</title>
<path fill="none" stroke="#888888" d="M826.34,-301.181C822.584,-305.047 815.159,-312.691 809.657,-318.355"/>
<polygon fill="#888888" stroke="#888888" points="807.98,-317.068 805.306,-322.835 810.993,-319.994 807.98,-317.068"/>
</g>
<!-- .23&#45;&gt;V11 -->
<g id="edge132" class="edge"><title>.23&#45;&gt;V11</title>
<path fill="none" stroke="#888888" d="M801.971,-328.983C799.935,-337.393 794.825,-358.49 791.815,-370.92"/>
<polygon fill="#888888" stroke="#888888" points="789.695,-370.75 790.324,-377.076 793.777,-371.739 789.695,-370.75"/>
</g>
<!-- .24&#45;&gt;V12 -->
<g id="edge142" class="edge"><title>.24&#45;&gt;V12</title>
<path fill="none" stroke="#888888" d="M847.583,-406.065C843.851,-414.587 833.886,-437.341 828.335,-450.016"/>
<polygon fill="#888888" stroke="#888888" points="826.374,-449.258 825.891,-455.597 830.221,-450.943 826.374,-449.258"/>
</g>
<!-- .24&#45;&gt;.25 -->
<g id="edge140" class="edge"><title>.24&#45;&gt;.25</title>
<path fill="none" stroke="#888888" d="M846.064,-404.168C835.081,-409.491 796.631,-428.126 779.207,-436.571"/>
<polygon fill="#888888" stroke="#888888" points="777.976,-434.834 773.493,-439.34 779.808,-438.613 777.976,-434.834"/>
</g>
<!-- .25&#45;&gt;V12 -->
<g id="edge144" class="edge"><title>.25&#45;&gt;V12</title>
<path fill="none" stroke="#888888" d="M773.408,-441.759C781.313,-444.405 803.467,-451.822 815.837,-455.963"/>
<polygon fill="#888888" stroke="#888888" points="815.193,-457.962 821.55,-457.876 816.527,-453.98 815.193,-457.962"/>
</g>
<!-- .26&#45;&gt;V13 -->
<g id="edge154" class="edge"><title>.26&#45;&gt;V13</title>
<path fill="none" stroke="#888888" d="M796.281,-539.501C808.204,-536.381 849.945,-525.46 868.861,-520.51"/>
<polygon fill="#888888" stroke="#888888" points="869.791,-522.437 875.064,-518.887 868.728,-518.374 869.791,-522.437"/>
</g>
<!-- .26&#45;&gt;.27 -->
<g id="edge152" class="edge"><title>.26&#45;&gt;.27</title>
<path fill="none" stroke="#888888" d="M795.974,-538.409C800.678,-535.296 810.07,-529.081 816.859,-524.589"/>
<polygon fill="#888888" stroke="#888888" points="818.308,-526.148 822.153,-521.086 815.991,-522.645 818.308,-526.148"/>
</g>
<!-- .27&#45;&gt;V13 -->
<g id="edge156" class="edge"><title>.27&#45;&gt;V13</title>
<path fill="none" stroke="#888888" d="M827.993,-519.253C835.892,-519.062 856.619,-518.562 868.865,-518.267"/>
<polygon fill="#888888" stroke="#888888" points="869.256,-520.358 875.203,-518.114 869.154,-516.159 869.256,-520.358"/>
</g>
<!-- .28&#45;&gt;V14 -->
<g id="edge166" class="edge"><title>.28&#45;&gt;V14</title>
<path fill="none" stroke="#888888" d="M885.733,-598.974C895.763,-590.849 931.098,-562.227 946.667,-549.616"/>
<polygon fill="#888888" stroke="#888888" points="948.085,-551.17 951.425,-545.762 945.441,-547.907 948.085,-551.17"/>
</g>
<!-- .28&#45;&gt;.29 -->
<g id="edge164" class="edge"><title>.28&#45;&gt;.29</title>
<path fill="none" stroke="#888888" d="M885.743,-598.668C890.181,-594.586 899.134,-586.352 905.437,-580.555"/>
<polygon fill="#888888" stroke="#888888" points="906.956,-582.011 909.951,-576.403 904.113,-578.919 906.956,-582.011"/>
</g>
<!-- .29&#45;&gt;V14 -->
<g id="edge168" class="edge"><title>.29&#45;&gt;V14</title>
<path fill="none" stroke="#888888" d="M915.142,-572.14C921.388,-567.564 936.879,-556.212 946.346,-549.275"/>
<polygon fill="#888888" stroke="#888888" points="947.727,-550.866 951.326,-545.626 945.245,-547.478 947.727,-550.866"/>
</g>
<!-- .30&#45;&gt;.31 -->
<g id="edge176" class="edge"><title>.30&#45;&gt;.31</title>
<path fill="none" stroke="#888888" d="M1000.95,-601.296C1004.78,-589.243 1017.35,-549.755 1023.19,-531.398"/>
<polygon fill="#888888" stroke="#888888" points="1025.3,-531.673 1025.12,-525.319 1021.3,-530.4 1025.3,-531.673"/>
</g>
<!-- .30&#45;&gt;.32 -->
<g id="edge178" class="edge"><title>.30&#45;&gt;.32</title>
<path fill="none" stroke="#888888" d="M1002.31,-601.979C1007.16,-596.37 1018,-583.828 1025.05,-575.682"/>
<polygon fill="#888888" stroke="#888888" points="1026.86,-576.796 1029.19,-570.884 1023.68,-574.049 1026.86,-576.796"/>
</g>
<!-- .31&#45;&gt;.32 -->
<g id="edge180" class="edge"><title>.31&#45;&gt;.32</title>
<path fill="none" stroke="#888888" d="M1026.64,-525.487C1027.46,-532.548 1029.29,-548.335 1030.48,-558.588"/>
<polygon fill="#888888" stroke="#888888" points="1028.41,-558.91 1031.18,-564.628 1032.58,-558.426 1028.41,-558.91"/>
</g>
</g>
</svg>
