<?xml version="1.0" encoding="UTF-8" standalone="no"?>
<!DOCTYPE svg PUBLIC "-//W3C//DTD SVG 1.1//EN"
 "http://www.w3.org/Graphics/SVG/1.1/DTD/svg11.dtd">
<!-- Generated by graphviz version 2.26.3 (20100126.1600)
 -->
<!-- Title: G Pages: 1 -->
<svg width="222pt" height="404pt"
 viewBox="0.00 0.00 222.40 404.00" xmlns="http://www.w3.org/2000/svg" xmlns:xlink="http://www.w3.org/1999/xlink">
<g id="graph1" class="graph" transform="scale(1 1) rotate(0) translate(4 400)">
<title>G</title>
<polygon fill="white" stroke="white" points="-4,5 -4,-400 219.396,-400 219.396,5 -4,5"/>
<!-- A -->
<g id="node1" class="node"><title>A</title>
<ellipse fill="none" stroke="black" cx="132.396" cy="-378" rx="27" ry="18"/>
<text text-anchor="middle" x="132.396" y="-373.4" font-family="Times-Roman" font-size="14.00">A</text>
</g>
<!-- H -->
<g id="node3" class="node"><title>H</title>
<ellipse fill="none" stroke="black" cx="132.396" cy="-306" rx="27" ry="18"/>
<text text-anchor="middle" x="132.396" y="-301.4" font-family="Times-Roman" font-size="14.00">H</text>
</g>
<!-- A&#45;&gt;H -->
<g id="edge2" class="edge"><title>A&#45;&gt;H</title>
<path fill="none" stroke="black" d="M132.396,-359.831C132.396,-352.131 132.396,-342.974 132.396,-334.417"/>
<polygon fill="black" stroke="black" points="135.896,-334.413 132.396,-324.413 128.896,-334.413 135.896,-334.413"/>
</g>
<!-- L -->
<g id="node5" class="node"><title>L</title>
<ellipse fill="none" stroke="black" cx="187.396" cy="-234" rx="27" ry="18"/>
<text text-anchor="middle" x="187.396" y="-229.4" font-family="Times-Roman" font-size="14.00">L</text>
</g>
<!-- A&#45;&gt;L -->
<g id="edge4" class="edge"><title>A&#45;&gt;L</title>
<path fill="none" stroke="black" d="M145.495,-361.915C153.24,-351.639 162.631,-337.71 168.396,-324 176.726,-304.188 181.549,-280.332 184.25,-262.16"/>
<polygon fill="black" stroke="black" points="187.726,-262.572 185.605,-252.192 180.79,-261.629 187.726,-262.572"/>
</g>
<!-- D -->
<g id="node7" class="node"><title>D</title>
<ellipse fill="none" stroke="black" cx="60.3957" cy="-306" rx="27" ry="18"/>
<text text-anchor="middle" x="60.3957" y="-301.4" font-family="Times-Roman" font-size="14.00">D</text>
</g>
<!-- A&#45;&gt;D -->
<g id="edge6" class="edge"><title>A&#45;&gt;D</title>
<path fill="none" stroke="black" d="M117.126,-362.731C107.199,-352.803 94.0804,-339.685 82.9593,-328.564"/>
<polygon fill="black" stroke="black" points="85.189,-325.844 75.643,-321.247 80.2392,-330.793 85.189,-325.844"/>
</g>
<!-- H&#45;&gt;L -->
<g id="edge24" class="edge"><title>H&#45;&gt;L</title>
<path fill="none" stroke="black" d="M144.876,-289.662C151.908,-280.456 160.83,-268.776 168.684,-258.495"/>
<polygon fill="black" stroke="black" points="171.676,-260.345 174.965,-250.273 166.113,-256.095 171.676,-260.345"/>
</g>
<!-- K -->
<g id="node13" class="node"><title>K</title>
<ellipse fill="none" stroke="black" cx="108.396" cy="-90" rx="27" ry="18"/>
<text text-anchor="middle" x="108.396" y="-85.4" font-family="Times-Roman" font-size="14.00">K</text>
</g>
<!-- H&#45;&gt;K -->
<g id="edge26" class="edge"><title>H&#45;&gt;K</title>
<path fill="none" stroke="black" d="M130.391,-287.955C126.208,-250.314 116.528,-163.187 111.521,-118.125"/>
<polygon fill="black" stroke="black" points="114.995,-117.697 110.412,-108.145 108.038,-118.47 114.995,-117.697"/>
</g>
<!-- N -->
<g id="node18" class="node"><title>N</title>
<ellipse fill="none" stroke="black" cx="150.396" cy="-18" rx="27" ry="18"/>
<text text-anchor="middle" x="150.396" y="-13.4" font-family="Times-Roman" font-size="14.00">N</text>
</g>
<!-- L&#45;&gt;N -->
<g id="edge22" class="edge"><title>L&#45;&gt;N</title>
<path fill="none" stroke="black" d="M184.305,-215.955C177.857,-178.314 162.932,-91.1867 155.213,-46.1246"/>
<polygon fill="black" stroke="black" points="158.642,-45.4105 153.504,-36.1451 151.743,-46.5925 158.642,-45.4105"/>
</g>
<!-- D&#45;&gt;L -->
<g id="edge14" class="edge"><title>D&#45;&gt;L</title>
<path fill="none" stroke="black" d="M81.0831,-294.272C101.932,-282.452 134.306,-264.098 157.854,-250.748"/>
<polygon fill="black" stroke="black" points="159.744,-253.7 166.717,-245.723 156.292,-247.61 159.744,-253.7"/>
</g>
<!-- F -->
<g id="node9" class="node"><title>F</title>
<ellipse fill="none" stroke="black" cx="39.3957" cy="-234" rx="27" ry="18"/>
<text text-anchor="middle" x="39.3957" y="-229.4" font-family="Times-Roman" font-size="14.00">F</text>
</g>
<!-- D&#45;&gt;F -->
<g id="edge8" class="edge"><title>D&#45;&gt;F</title>
<path fill="none" stroke="black" d="M55.2047,-288.202C52.8573,-280.154 50.0295,-270.459 47.4184,-261.507"/>
<polygon fill="black" stroke="black" points="50.7598,-260.463 44.5997,-251.843 44.0398,-262.423 50.7598,-260.463"/>
</g>
<!-- I -->
<g id="node11" class="node"><title>I</title>
<ellipse fill="none" stroke="black" cx="39.3957" cy="-162" rx="27" ry="18"/>
<text text-anchor="middle" x="39.3957" y="-157.4" font-family="Times-Roman" font-size="14.00">I</text>
</g>
<!-- D&#45;&gt;I -->
<g id="edge10" class="edge"><title>D&#45;&gt;I</title>
<path fill="none" stroke="black" d="M40.5366,-293.584C27.2765,-284.038 10.9364,-269.531 3.39566,-252 -6.14741,-229.814 6.32349,-204.218 19.1251,-186.008"/>
<polygon fill="black" stroke="black" points="22.1474,-187.811 25.3412,-177.709 16.5448,-183.614 22.1474,-187.811"/>
</g>
<!-- D&#45;&gt;K -->
<g id="edge12" class="edge"><title>D&#45;&gt;K</title>
<path fill="none" stroke="black" d="M65.7121,-288.082C68.7342,-277.609 72.4842,-264.109 75.3957,-252 86.6082,-205.364 97.244,-150.584 103.278,-118.164"/>
<polygon fill="black" stroke="black" points="106.768,-118.54 105.142,-108.07 99.8842,-117.268 106.768,-118.54"/>
</g>
<!-- F&#45;&gt;I -->
<g id="edge16" class="edge"><title>F&#45;&gt;I</title>
<path fill="none" stroke="black" d="M39.3957,-215.831C39.3957,-208.131 39.3957,-198.974 39.3957,-190.417"/>
<polygon fill="black" stroke="black" points="42.8958,-190.413 39.3957,-180.413 35.8958,-190.413 42.8958,-190.413"/>
</g>
<!-- I&#45;&gt;K -->
<g id="edge18" class="edge"><title>I&#45;&gt;K</title>
<path fill="none" stroke="black" d="M54.0288,-146.731C63.5428,-136.803 76.1145,-123.685 86.7722,-112.564"/>
<polygon fill="black" stroke="black" points="89.3915,-114.889 93.7836,-105.247 84.3376,-110.046 89.3915,-114.889"/>
</g>
<!-- K&#45;&gt;N -->
<g id="edge20" class="edge"><title>K&#45;&gt;N</title>
<path fill="none" stroke="black" d="M118.349,-72.937C123.423,-64.2393 129.699,-53.4799 135.349,-43.7948"/>
<polygon fill="black" stroke="black" points="138.498,-45.3419 140.514,-34.9405 132.452,-41.8148 138.498,-45.3419"/>
</g>
</g>
</svg>
