<?xml version="1.0" encoding="UTF-8" standalone="no"?>
<!DOCTYPE svg PUBLIC "-//W3C//DTD SVG 1.1//EN"
 "http://www.w3.org/Graphics/SVG/1.1/DTD/svg11.dtd">
<!-- Generated by graphviz version 2.26.3 (20100126.1600)
 -->
<!-- Title: G Pages: 1 -->
<svg width="253pt" height="260pt"
 viewBox="0.00 0.00 252.99 260.00" xmlns="http://www.w3.org/2000/svg" xmlns:xlink="http://www.w3.org/1999/xlink">
<g id="graph1" class="graph" transform="scale(1 1) rotate(0) translate(4 256)">
<title>G</title>
<polygon fill="white" stroke="white" points="-4,5 -4,-256 249.99,-256 249.99,5 -4,5"/>
<!-- A -->
<g id="node1" class="node"><title>A</title>
<ellipse fill="none" stroke="black" cx="205.616" cy="-234" rx="27" ry="18"/>
<text text-anchor="middle" x="205.616" y="-229.4" font-family="Times-Roman" font-size="14.00">A</text>
</g>
<!-- D -->
<g id="node3" class="node"><title>D</title>
<ellipse fill="none" stroke="black" cx="114.616" cy="-162" rx="27" ry="18"/>
<text text-anchor="middle" x="114.616" y="-157.4" font-family="Times-Roman" font-size="14.00">D</text>
</g>
<!-- A&#45;&gt;D -->
<g id="edge2" class="edge"><title>A&#45;&gt;D</title>
<path fill="none" stroke="black" d="M188.07,-220.118C174.474,-209.36 155.441,-194.301 140.155,-182.207"/>
<polygon fill="black" stroke="black" points="142.122,-179.3 132.108,-175.84 137.778,-184.789 142.122,-179.3"/>
</g>
<!-- H -->
<g id="node5" class="node"><title>H</title>
<ellipse fill="none" stroke="black" cx="205.616" cy="-162" rx="27" ry="18"/>
<text text-anchor="middle" x="205.616" y="-157.4" font-family="Times-Roman" font-size="14.00">H</text>
</g>
<!-- A&#45;&gt;H -->
<g id="edge4" class="edge"><title>A&#45;&gt;H</title>
<path fill="none" stroke="black" d="M205.616,-215.831C205.616,-208.131 205.616,-198.974 205.616,-190.417"/>
<polygon fill="black" stroke="black" points="209.116,-190.413 205.616,-180.413 202.116,-190.413 209.116,-190.413"/>
</g>
<!-- N -->
<g id="node7" class="node"><title>N</title>
<ellipse fill="none" stroke="black" cx="150.616" cy="-18" rx="27" ry="18"/>
<text text-anchor="middle" x="150.616" y="-13.4" font-family="Times-Roman" font-size="14.00">N</text>
</g>
<!-- A&#45;&gt;N -->
<g id="edge6" class="edge"><title>A&#45;&gt;N</title>
<path fill="none" stroke="black" d="M219.739,-218.284C227.869,-208.147 237.306,-194.235 241.616,-180 247.22,-161.49 245.168,-83.1566 238.616,-72 226.735,-51.7696 203.999,-38.1101 184.614,-29.5907"/>
<polygon fill="black" stroke="black" points="185.724,-26.2631 175.144,-25.7058 183.068,-32.7394 185.724,-26.2631"/>
</g>
<!-- D&#45;&gt;N -->
<g id="edge14" class="edge"><title>D&#45;&gt;N</title>
<path fill="none" stroke="black" d="M88.3665,-157.071C62.5015,-150.666 24.3596,-136.71 6.61582,-108 -1.79588,-94.3896 -2.4977,-85.1508 6.61582,-72 19.32,-53.6679 76.7734,-36.2643 115.157,-26.3852"/>
<polygon fill="black" stroke="black" points="116.101,-29.7567 124.944,-23.9217 114.393,-22.9685 116.101,-29.7567"/>
</g>
<!-- F -->
<g id="node9" class="node"><title>F</title>
<ellipse fill="none" stroke="black" cx="42.6158" cy="-90" rx="27" ry="18"/>
<text text-anchor="middle" x="42.6158" y="-85.4" font-family="Times-Roman" font-size="14.00">F</text>
</g>
<!-- D&#45;&gt;F -->
<g id="edge8" class="edge"><title>D&#45;&gt;F</title>
<path fill="none" stroke="black" d="M99.3465,-146.731C89.4188,-136.803 76.3005,-123.685 65.1795,-112.564"/>
<polygon fill="black" stroke="black" points="67.4091,-109.844 57.8632,-105.247 62.4594,-114.793 67.4091,-109.844"/>
</g>
<!-- I -->
<g id="node11" class="node"><title>I</title>
<ellipse fill="none" stroke="black" cx="114.616" cy="-90" rx="27" ry="18"/>
<text text-anchor="middle" x="114.616" y="-85.4" font-family="Times-Roman" font-size="14.00">I</text>
</g>
<!-- D&#45;&gt;I -->
<g id="edge10" class="edge"><title>D&#45;&gt;I</title>
<path fill="none" stroke="black" d="M114.616,-143.831C114.616,-136.131 114.616,-126.974 114.616,-118.417"/>
<polygon fill="black" stroke="black" points="118.116,-118.413 114.616,-108.413 111.116,-118.413 118.116,-118.413"/>
</g>
<!-- L -->
<g id="node13" class="node"><title>L</title>
<ellipse fill="none" stroke="black" cx="186.616" cy="-90" rx="27" ry="18"/>
<text text-anchor="middle" x="186.616" y="-85.4" font-family="Times-Roman" font-size="14.00">L</text>
</g>
<!-- D&#45;&gt;L -->
<g id="edge12" class="edge"><title>D&#45;&gt;L</title>
<path fill="none" stroke="black" d="M129.885,-146.731C139.813,-136.803 152.931,-123.685 164.052,-112.564"/>
<polygon fill="black" stroke="black" points="166.772,-114.793 171.368,-105.247 161.823,-109.844 166.772,-114.793"/>
</g>
<!-- H&#45;&gt;N -->
<g id="edge18" class="edge"><title>H&#45;&gt;N</title>
<path fill="none" stroke="black" d="M214.981,-144.864C223.896,-126.072 234.349,-95.4672 222.616,-72 214.167,-55.1028 197.639,-42.1213 182.547,-33.1258"/>
<polygon fill="black" stroke="black" points="183.86,-29.8508 173.421,-28.0405 180.453,-35.9655 183.86,-29.8508"/>
</g>
<!-- H&#45;&gt;L -->
<g id="edge16" class="edge"><title>H&#45;&gt;L</title>
<path fill="none" stroke="black" d="M200.919,-144.202C198.818,-136.241 196.292,-126.667 193.951,-117.796"/>
<polygon fill="black" stroke="black" points="197.26,-116.618 191.324,-107.843 190.492,-118.405 197.26,-116.618"/>
</g>
<!-- F&#45;&gt;N -->
<g id="edge24" class="edge"><title>F&#45;&gt;N</title>
<path fill="none" stroke="black" d="M61.9241,-77.1278C78.9713,-65.763 104.018,-49.0654 123.15,-36.3104"/>
<polygon fill="black" stroke="black" points="125.096,-39.2199 131.475,-30.7607 121.213,-33.3956 125.096,-39.2199"/>
</g>
<!-- I&#45;&gt;N -->
<g id="edge22" class="edge"><title>I&#45;&gt;N</title>
<path fill="none" stroke="black" d="M123.33,-72.5708C127.575,-64.0807 132.769,-53.6929 137.482,-44.2674"/>
<polygon fill="black" stroke="black" points="140.64,-45.7782 141.981,-35.2687 134.379,-42.6477 140.64,-45.7782"/>
</g>
<!-- L&#45;&gt;N -->
<g id="edge20" class="edge"><title>L&#45;&gt;N</title>
<path fill="none" stroke="black" d="M177.901,-72.5708C173.656,-64.0807 168.462,-53.6929 163.75,-44.2674"/>
<polygon fill="black" stroke="black" points="166.853,-42.6477 159.25,-35.2687 160.592,-45.7782 166.853,-42.6477"/>
</g>
</g>
</svg>
