<?xml version="1.0" encoding="UTF-8" standalone="no"?>
<!DOCTYPE svg PUBLIC "-//W3C//DTD SVG 1.1//EN"
 "http://www.w3.org/Graphics/SVG/1.1/DTD/svg11.dtd">
<!-- Generated by graphviz version 2.26.3 (20100126.1600)
 -->
<!-- Title: G Pages: 1 -->
<svg width="167pt" height="173pt"
 viewBox="0.00 0.00 167.14 173.05" xmlns="http://www.w3.org/2000/svg" xmlns:xlink="http://www.w3.org/1999/xlink">
<g id="graph1" class="graph" transform="scale(1 1) rotate(0) translate(4 169.054)">
<title>G</title>
<polygon fill="white" stroke="white" points="-4,5 -4,-169.054 164.14,-169.054 164.14,5 -4,5"/>
<!-- n0 -->
<g id="node1" class="node"><title>n0</title>
<ellipse fill="#000000" stroke="#000000" stroke-width="2" cx="71.9181" cy="-95.4361" rx="3" ry="3.5"/>
</g>
<!-- n1 -->
<g id="node3" class="node"><title>n1</title>
<ellipse fill="#000000" stroke="#000000" stroke-width="2" cx="150.284" cy="-124.548" rx="3" ry="3.5"/>
</g>
<!-- n0&#45;&#45;n1 -->
<g id="edge2" class="edge"><title>n0&#45;&#45;n1</title>
<path fill="none" stroke="#888888" d="M74.8944,-96.5418C87.3078,-101.153 134.886,-118.827 147.305,-123.441"/>
</g>
<!-- n2 -->
<g id="node5" class="node"><title>n2</title>
<ellipse fill="#000000" stroke="#000000" stroke-width="2" cx="78.5349" cy="-4.5" rx="3" ry="3.5"/>
</g>
<!-- n0&#45;&#45;n2 -->
<g id="edge4" class="edge"><title>n0&#45;&#45;n2</title>
<path fill="none" stroke="#888888" d="M72.2024,-91.5287C73.2908,-76.5707 77.1852,-23.0488 78.259,-8.29164"/>
</g>
<!-- n4 -->
<g id="node7" class="node"><title>n4</title>
<ellipse fill="#000000" stroke="#000000" stroke-width="2" cx="4.5" cy="-126.213" rx="3" ry="3.5"/>
</g>
<!-- n0&#45;&#45;n4 -->
<g id="edge6" class="edge"><title>n0&#45;&#45;n4</title>
<path fill="none" stroke="#888888" d="M69.0212,-96.7586C57.9316,-101.821 18.2517,-119.935 7.31104,-124.929"/>
</g>
<!-- n3 -->
<g id="node9" class="node"><title>n3</title>
<ellipse fill="#000000" stroke="#000000" stroke-width="2" cx="154.64" cy="-39.7576" rx="3" ry="3.5"/>
</g>
<!-- n1&#45;&#45;n3 -->
<g id="edge8" class="edge"><title>n1&#45;&#45;n3</title>
<path fill="none" stroke="#888888" d="M150.472,-120.904C151.188,-106.957 153.752,-57.0527 154.458,-43.2929"/>
</g>
<!-- n5 -->
<g id="node11" class="node"><title>n5</title>
<ellipse fill="#000000" stroke="#000000" stroke-width="2" cx="80.329" cy="-160.554" rx="3" ry="3.5"/>
</g>
<!-- n1&#45;&#45;n5 -->
<g id="edge10" class="edge"><title>n1&#45;&#45;n5</title>
<path fill="none" stroke="#888888" d="M147.278,-126.095C135.772,-132.017 94.5983,-153.209 83.2459,-159.052"/>
</g>
<!-- n2&#45;&#45;n3 -->
<g id="edge12" class="edge"><title>n2&#45;&#45;n3</title>
<path fill="none" stroke="#888888" d="M81.4254,-5.83908C93.4806,-11.424 139.686,-32.8297 151.747,-38.4171"/>
</g>
<!-- n6 -->
<g id="node14" class="node"><title>n6</title>
<ellipse fill="#000000" stroke="#000000" stroke-width="2" cx="8.25382" cy="-41.2751" rx="3" ry="3.5"/>
</g>
<!-- n2&#45;&#45;n6 -->
<g id="edge14" class="edge"><title>n2&#45;&#45;n6</title>
<path fill="none" stroke="#888888" d="M75.515,-6.08018C63.9545,-12.1293 22.5895,-33.7739 11.1842,-39.7418"/>
</g>
<!-- n4&#45;&#45;n5 -->
<g id="edge18" class="edge"><title>n4&#45;&#45;n5</title>
<path fill="none" stroke="#888888" d="M7.37999,-127.517C19.3915,-132.957 65.4292,-153.806 77.4462,-159.248"/>
</g>
<!-- n4&#45;&#45;n6 -->
<g id="edge20" class="edge"><title>n4&#45;&#45;n6</title>
<path fill="none" stroke="#888888" d="M4.6613,-122.563C5.27876,-108.592 7.48813,-58.6004 8.0973,-44.8166"/>
</g>
<!-- n7 -->
<g id="node16" class="node"><title>n7</title>
<ellipse fill="#000000" stroke="#000000" stroke-width="2" cx="86.8179" cy="-69.1392" rx="3" ry="3.5"/>
</g>
<!-- n3&#45;&#45;n7 -->
<g id="edge16" class="edge"><title>n3&#45;&#45;n7</title>
<path fill="none" stroke="#888888" d="M151.726,-41.0201C140.57,-45.853 100.652,-63.146 89.6458,-67.9141"/>
</g>
<!-- n5&#45;&#45;n7 -->
<g id="edge22" class="edge"><title>n5&#45;&#45;n7</title>
<path fill="none" stroke="#888888" d="M80.6078,-156.626C81.6752,-141.589 85.4943,-87.7856 86.5473,-72.9508"/>
</g>
<!-- n6&#45;&#45;n7 -->
<g id="edge24" class="edge"><title>n6&#45;&#45;n7</title>
<path fill="none" stroke="#888888" d="M11.2377,-42.3334C23.6824,-46.7471 71.3807,-63.6641 83.831,-68.0799"/>
</g>
</g>
</svg>
