<?xml version="1.0" encoding="UTF-8" standalone="no"?>
<!DOCTYPE svg PUBLIC "-//W3C//DTD SVG 1.1//EN"
 "http://www.w3.org/Graphics/SVG/1.1/DTD/svg11.dtd">
<!-- Generated by graphviz version 2.26.3 (20100126.1600)
 -->
<!-- Title: G Pages: 1 -->
<svg width="236pt" height="236pt"
 viewBox="0.00 0.00 236.19 235.95" xmlns="http://www.w3.org/2000/svg" xmlns:xlink="http://www.w3.org/1999/xlink">
<g id="graph1" class="graph" transform="scale(1 1) rotate(0) translate(4 231.946)">
<title>G</title>
<polygon fill="white" stroke="white" points="-4,5 -4,-231.946 233.192,-231.946 233.192,5 -4,5"/>
<!-- n0 -->
<g id="node1" class="node"><title>n0</title>
<ellipse fill="#000000" stroke="#000000" stroke-width="2" cx="58.4316" cy="-129.52" rx="3" ry="3.5"/>
</g>
<!-- n1 -->
<g id="node3" class="node"><title>n1</title>
<ellipse fill="#000000" stroke="#000000" stroke-width="2" cx="137.832" cy="-74.3556" rx="3" ry="3.5"/>
</g>
<!-- n0&#45;&#45;n1 -->
<g id="edge2" class="edge"><title>n0&#45;&#45;n1</title>
<path fill="none" stroke="#888888" d="M61.0734,-127.684C73.1284,-119.309 122.856,-84.7607 135.099,-76.2545"/>
</g>
<!-- n2 -->
<g id="node5" class="node"><title>n2</title>
<ellipse fill="#000000" stroke="#000000" stroke-width="2" cx="16.1249" cy="-55.2846" rx="3" ry="3.5"/>
</g>
<!-- n0&#45;&#45;n2 -->
<g id="edge4" class="edge"><title>n0&#45;&#45;n2</title>
<path fill="none" stroke="#888888" d="M56.6137,-126.33C49.6547,-114.119 24.7545,-70.4268 17.8889,-58.3799"/>
</g>
<!-- n4 -->
<g id="node7" class="node"><title>n4</title>
<ellipse fill="#000000" stroke="#000000" stroke-width="2" cx="54.8295" cy="-212.863" rx="3" ry="3.5"/>
</g>
<!-- n0&#45;&#45;n4 -->
<g id="edge6" class="edge"><title>n0&#45;&#45;n4</title>
<path fill="none" stroke="#888888" d="M58.2768,-133.101C57.6897,-146.685 55.6026,-194.974 54.996,-209.01"/>
</g>
<!-- n8 -->
<g id="node9" class="node"><title>n8</title>
<ellipse fill="#000000" stroke="#000000" stroke-width="2" cx="156.86" cy="-139.597" rx="3" ry="3.5"/>
</g>
<!-- n0&#45;&#45;n8 -->
<g id="edge8" class="edge"><title>n0&#45;&#45;n8</title>
<path fill="none" stroke="#888888" d="M61.7065,-129.855C76.7839,-131.399 139.399,-137.81 153.868,-139.291"/>
</g>
<!-- n3 -->
<g id="node11" class="node"><title>n3</title>
<ellipse fill="#000000" stroke="#000000" stroke-width="2" cx="86.3765" cy="-4.5" rx="3" ry="3.5"/>
</g>
<!-- n1&#45;&#45;n3 -->
<g id="edge10" class="edge"><title>n1&#45;&#45;n3</title>
<path fill="none" stroke="#888888" d="M135.621,-71.354C127.157,-59.8635 96.8722,-18.7489 88.5219,-7.41267"/>
</g>
<!-- n5 -->
<g id="node13" class="node"><title>n5</title>
<ellipse fill="#000000" stroke="#000000" stroke-width="2" cx="126.638" cy="-170.386" rx="3" ry="3.5"/>
</g>
<!-- n1&#45;&#45;n5 -->
<g id="edge12" class="edge"><title>n1&#45;&#45;n5</title>
<path fill="none" stroke="#888888" d="M137.407,-78.0029C135.634,-93.2142 128.838,-151.516 127.064,-166.735"/>
</g>
<!-- n9 -->
<g id="node15" class="node"><title>n9</title>
<ellipse fill="#000000" stroke="#000000" stroke-width="2" cx="223.692" cy="-86.7691" rx="3" ry="3.5"/>
</g>
<!-- n1&#45;&#45;n9 -->
<g id="edge14" class="edge"><title>n1&#45;&#45;n9</title>
<path fill="none" stroke="#888888" d="M141.093,-74.8271C154.693,-76.7934 206.821,-84.3299 220.427,-86.2971"/>
</g>
<!-- n2&#45;&#45;n3 -->
<g id="edge16" class="edge"><title>n2&#45;&#45;n3</title>
<path fill="none" stroke="#888888" d="M18.793,-53.3558C29.921,-45.3114 72.5726,-14.4788 83.7056,-6.43073"/>
</g>
<!-- n6 -->
<g id="node18" class="node"><title>n6</title>
<ellipse fill="#000000" stroke="#000000" stroke-width="2" cx="4.5" cy="-141.176" rx="3" ry="3.5"/>
</g>
<!-- n2&#45;&#45;n6 -->
<g id="edge18" class="edge"><title>n2&#45;&#45;n6</title>
<path fill="none" stroke="#888888" d="M15.6254,-58.9753C13.7132,-73.1036 6.8712,-123.656 4.98471,-137.595"/>
</g>
<!-- n10 -->
<g id="node20" class="node"><title>n10</title>
<ellipse fill="#000000" stroke="#000000" stroke-width="2" cx="101.548" cy="-57.5491" rx="3" ry="3.5"/>
</g>
<!-- n2&#45;&#45;n10 -->
<g id="edge20" class="edge"><title>n2&#45;&#45;n10</title>
<path fill="none" stroke="#888888" d="M19.3693,-55.3706C32.9004,-55.7293 84.7629,-57.1042 98.3002,-57.463"/>
</g>
<!-- n4&#45;&#45;n5 -->
<g id="edge26" class="edge"><title>n4&#45;&#45;n5</title>
<path fill="none" stroke="#888888" d="M57.5568,-211.249C68.9315,-204.521 112.528,-178.732 123.908,-172"/>
</g>
<!-- n4&#45;&#45;n6 -->
<g id="edge28" class="edge"><title>n4&#45;&#45;n6</title>
<path fill="none" stroke="#888888" d="M52.918,-210.14C44.9457,-198.785 14.3893,-155.262 6.41343,-143.902"/>
</g>
<!-- n12 -->
<g id="node28" class="node"><title>n12</title>
<ellipse fill="#000000" stroke="#000000" stroke-width="2" cx="141.778" cy="-223.446" rx="3" ry="3.5"/>
</g>
<!-- n4&#45;&#45;n12 -->
<g id="edge30" class="edge"><title>n4&#45;&#45;n12</title>
<path fill="none" stroke="#888888" d="M58.1318,-213.265C71.9046,-214.941 124.693,-221.367 138.472,-223.044"/>
</g>
<!-- n8&#45;&#45;n9 -->
<g id="edge42" class="edge"><title>n8&#45;&#45;n9</title>
<path fill="none" stroke="#888888" d="M159.399,-137.591C169.985,-129.223 210.56,-97.1494 221.151,-88.7775"/>
</g>
<!-- n8&#45;&#45;n10 -->
<g id="edge44" class="edge"><title>n8&#45;&#45;n10</title>
<path fill="none" stroke="#888888" d="M154.76,-136.481C145.919,-123.368 111.809,-72.7704 103.42,-60.326"/>
</g>
<!-- n8&#45;&#45;n12 -->
<g id="edge46" class="edge"><title>n8&#45;&#45;n12</title>
<path fill="none" stroke="#888888" d="M156.212,-143.2C153.731,-156.993 144.854,-206.343 142.407,-219.95"/>
</g>
<!-- n7 -->
<g id="node22" class="node"><title>n7</title>
<ellipse fill="#000000" stroke="#000000" stroke-width="2" cx="71.3392" cy="-88.3444" rx="3" ry="3.5"/>
</g>
<!-- n3&#45;&#45;n7 -->
<g id="edge22" class="edge"><title>n3&#45;&#45;n7</title>
<path fill="none" stroke="#888888" d="M85.7303,-8.10269C83.2569,-21.8942 74.4065,-71.2421 71.9662,-84.8485"/>
</g>
<!-- n11 -->
<g id="node24" class="node"><title>n11</title>
<ellipse fill="#000000" stroke="#000000" stroke-width="2" cx="173.342" cy="-15.068" rx="3" ry="3.5"/>
</g>
<!-- n3&#45;&#45;n11 -->
<g id="edge24" class="edge"><title>n3&#45;&#45;n11</title>
<path fill="none" stroke="#888888" d="M89.6794,-4.90137C103.455,-6.57536 156.254,-12.9915 170.036,-14.6662"/>
</g>
<!-- n5&#45;&#45;n7 -->
<g id="edge32" class="edge"><title>n5&#45;&#45;n7</title>
<path fill="none" stroke="#888888" d="M124.538,-167.27C115.7,-154.157 81.5981,-103.564 73.2108,-91.1211"/>
</g>
<!-- n13 -->
<g id="node31" class="node"><title>n13</title>
<ellipse fill="#000000" stroke="#000000" stroke-width="2" cx="212.048" cy="-172.677" rx="3" ry="3.5"/>
</g>
<!-- n5&#45;&#45;n13 -->
<g id="edge34" class="edge"><title>n5&#45;&#45;n13</title>
<path fill="none" stroke="#888888" d="M129.882,-170.473C143.411,-170.836 195.266,-172.227 208.801,-172.59"/>
</g>
<!-- n9&#45;&#45;n11 -->
<g id="edge48" class="edge"><title>n9&#45;&#45;n11</title>
<path fill="none" stroke="#888888" d="M221.779,-84.0458C213.804,-72.6882 183.236,-29.1566 175.256,-17.7939"/>
</g>
<!-- n9&#45;&#45;n13 -->
<g id="edge50" class="edge"><title>n9&#45;&#45;n13</title>
<path fill="none" stroke="#888888" d="M223.191,-90.4604C221.276,-104.591 214.423,-155.154 212.534,-169.095"/>
</g>
<!-- n6&#45;&#45;n7 -->
<g id="edge36" class="edge"><title>n6&#45;&#45;n7</title>
<path fill="none" stroke="#888888" d="M7.03856,-139.17C17.626,-130.801 58.2059,-98.7254 68.7981,-90.353"/>
</g>
<!-- n14 -->
<g id="node34" class="node"><title>n14</title>
<ellipse fill="#000000" stroke="#000000" stroke-width="2" cx="90.3719" cy="-153.563" rx="3" ry="3.5"/>
</g>
<!-- n6&#45;&#45;n14 -->
<g id="edge38" class="edge"><title>n6&#45;&#45;n14</title>
<path fill="none" stroke="#888888" d="M7.76142,-141.647C21.3637,-143.609 73.4987,-151.129 87.1072,-153.092"/>
</g>
<!-- n10&#45;&#45;n11 -->
<g id="edge52" class="edge"><title>n10&#45;&#45;n11</title>
<path fill="none" stroke="#888888" d="M104.275,-55.9357C115.647,-49.2066 159.235,-23.4152 170.613,-16.683"/>
</g>
<!-- n10&#45;&#45;n14 -->
<g id="edge54" class="edge"><title>n10&#45;&#45;n14</title>
<path fill="none" stroke="#888888" d="M101.123,-61.1957C99.353,-76.4045 92.5678,-134.697 90.7967,-149.912"/>
</g>
<!-- n15 -->
<g id="node36" class="node"><title>n15</title>
<ellipse fill="#000000" stroke="#000000" stroke-width="2" cx="169.773" cy="-98.4167" rx="3" ry="3.5"/>
</g>
<!-- n7&#45;&#45;n15 -->
<g id="edge40" class="edge"><title>n7&#45;&#45;n15</title>
<path fill="none" stroke="#888888" d="M74.6143,-88.6795C89.6926,-90.2224 152.311,-96.6299 166.78,-98.1104"/>
</g>
<!-- n11&#45;&#45;n15 -->
<g id="edge56" class="edge"><title>n11&#45;&#45;n15</title>
<path fill="none" stroke="#888888" d="M173.189,-18.6494C172.607,-32.2347 170.539,-80.5265 169.938,-94.5638"/>
</g>
<!-- n12&#45;&#45;n13 -->
<g id="edge58" class="edge"><title>n12&#45;&#45;n13</title>
<path fill="none" stroke="#888888" d="M144.447,-221.518C155.578,-213.476 198.241,-182.653 209.377,-174.608"/>
</g>
<!-- n12&#45;&#45;n14 -->
<g id="edge60" class="edge"><title>n12&#45;&#45;n14</title>
<path fill="none" stroke="#888888" d="M139.569,-220.443C131.113,-208.948 100.857,-167.817 92.5153,-156.476"/>
</g>
<!-- n13&#45;&#45;n15 -->
<g id="edge62" class="edge"><title>n13&#45;&#45;n15</title>
<path fill="none" stroke="#888888" d="M210.232,-169.487C203.278,-157.271 178.396,-113.564 171.536,-101.513"/>
</g>
<!-- n14&#45;&#45;n15 -->
<g id="edge64" class="edge"><title>n14&#45;&#45;n15</title>
<path fill="none" stroke="#888888" d="M93.0137,-151.728C105.069,-143.355 154.796,-108.818 167.04,-100.315"/>
</g>
</g>
</svg>
