<?xml version="1.0" encoding="UTF-8" standalone="no"?>
<!DOCTYPE svg PUBLIC "-//W3C//DTD SVG 1.1//EN"
 "http://www.w3.org/Graphics/SVG/1.1/DTD/svg11.dtd">
<!-- Generated by graphviz version 2.26.3 (20100126.1600)
 -->
<!-- Title: G Pages: 1 -->
<svg width="230pt" height="236pt"
 viewBox="0.00 0.00 230.00 236.00" xmlns="http://www.w3.org/2000/svg" xmlns:xlink="http://www.w3.org/1999/xlink">
<g id="graph1" class="graph" transform="scale(1 1) rotate(0) translate(4 232)">
<title>G</title>
<polygon fill="white" stroke="white" points="-4,5 -4,-232 227,-232 227,5 -4,5"/>
<!-- n0 -->
<g id="node1" class="node"><title>n0</title>
<ellipse fill="#000000" stroke="#000000" stroke-width="2" cx="99" cy="-224" rx="3" ry="3.5"/>
</g>
<!-- n1 -->
<g id="node3" class="node"><title>n1</title>
<ellipse fill="#000000" stroke="#000000" stroke-width="2" cx="51" cy="-180" rx="3" ry="3.5"/>
</g>
<!-- n0&#45;&#45;n1 -->
<g id="edge2" class="edge"><title>n0&#45;&#45;n1</title>
<path fill="none" stroke="#888888" d="M96.4193,-221.634C88.007,-213.923 61.4558,-189.585 53.364,-182.167"/>
</g>
<!-- n2 -->
<g id="node5" class="node"><title>n2</title>
<ellipse fill="#000000" stroke="#000000" stroke-width="2" cx="75" cy="-180" rx="3" ry="3.5"/>
</g>
<!-- n0&#45;&#45;n2 -->
<g id="edge4" class="edge"><title>n0&#45;&#45;n2</title>
<path fill="none" stroke="#888888" d="M97.274,-220.836C92.8458,-212.717 81.1213,-191.222 76.7104,-183.136"/>
</g>
<!-- n4 -->
<g id="node7" class="node"><title>n4</title>
<ellipse fill="#000000" stroke="#000000" stroke-width="2" cx="99" cy="-180" rx="3" ry="3.5"/>
</g>
<!-- n0&#45;&#45;n4 -->
<g id="edge6" class="edge"><title>n0&#45;&#45;n4</title>
<path fill="none" stroke="#888888" d="M99,-220.249C99,-211.936 99,-192.046 99,-183.742"/>
</g>
<!-- n8 -->
<g id="node9" class="node"><title>n8</title>
<ellipse fill="#000000" stroke="#000000" stroke-width="2" cx="123" cy="-180" rx="3" ry="3.5"/>
</g>
<!-- n0&#45;&#45;n8 -->
<g id="edge8" class="edge"><title>n0&#45;&#45;n8</title>
<path fill="none" stroke="#888888" d="M100.726,-220.836C105.154,-212.717 116.879,-191.222 121.29,-183.136"/>
</g>
<!-- n16 -->
<g id="node11" class="node"><title>n16</title>
<ellipse fill="#000000" stroke="#000000" stroke-width="2" cx="171" cy="-180" rx="3" ry="3.5"/>
</g>
<!-- n0&#45;&#45;n16 -->
<g id="edge10" class="edge"><title>n0&#45;&#45;n16</title>
<path fill="none" stroke="#888888" d="M101.735,-222.329C113.14,-215.359 156.853,-188.646 168.263,-181.673"/>
</g>
<!-- n3 -->
<g id="node13" class="node"><title>n3</title>
<ellipse fill="#000000" stroke="#000000" stroke-width="2" cx="3" cy="-136" rx="3" ry="3.5"/>
</g>
<!-- n1&#45;&#45;n3 -->
<g id="edge12" class="edge"><title>n1&#45;&#45;n3</title>
<path fill="none" stroke="#888888" d="M48.4193,-177.634C40.007,-169.923 13.4558,-145.585 5.36396,-138.167"/>
</g>
<!-- n5 -->
<g id="node15" class="node"><title>n5</title>
<ellipse fill="#000000" stroke="#000000" stroke-width="2" cx="27" cy="-136" rx="3" ry="3.5"/>
</g>
<!-- n1&#45;&#45;n5 -->
<g id="edge14" class="edge"><title>n1&#45;&#45;n5</title>
<path fill="none" stroke="#888888" d="M49.274,-176.836C44.8458,-168.717 33.1213,-147.222 28.7104,-139.136"/>
</g>
<!-- n9 -->
<g id="node17" class="node"><title>n9</title>
<ellipse fill="#000000" stroke="#000000" stroke-width="2" cx="51" cy="-136" rx="3" ry="3.5"/>
</g>
<!-- n1&#45;&#45;n9 -->
<g id="edge16" class="edge"><title>n1&#45;&#45;n9</title>
<path fill="none" stroke="#888888" d="M51,-176.249C51,-167.936 51,-148.046 51,-139.742"/>
</g>
<!-- n17 -->
<g id="node19" class="node"><title>n17</title>
<ellipse fill="#000000" stroke="#000000" stroke-width="2" cx="147" cy="-136" rx="3" ry="3.5"/>
</g>
<!-- n1&#45;&#45;n17 -->
<g id="edge18" class="edge"><title>n1&#45;&#45;n17</title>
<path fill="none" stroke="#888888" d="M54.1941,-178.536C68.8995,-171.796 129.97,-143.806 144.081,-137.338"/>
</g>
<!-- n2&#45;&#45;n3 -->
<g id="edge20" class="edge"><title>n2&#45;&#45;n3</title>
<path fill="none" stroke="#888888" d="M72.2654,-178.329C60.8605,-171.359 17.1474,-144.646 5.73729,-137.673"/>
</g>
<!-- n6 -->
<g id="node22" class="node"><title>n6</title>
<ellipse fill="#000000" stroke="#000000" stroke-width="2" cx="75" cy="-136" rx="3" ry="3.5"/>
</g>
<!-- n2&#45;&#45;n6 -->
<g id="edge22" class="edge"><title>n2&#45;&#45;n6</title>
<path fill="none" stroke="#888888" d="M75,-176.249C75,-167.936 75,-148.046 75,-139.742"/>
</g>
<!-- n10 -->
<g id="node24" class="node"><title>n10</title>
<ellipse fill="#000000" stroke="#000000" stroke-width="2" cx="99" cy="-136" rx="3" ry="3.5"/>
</g>
<!-- n2&#45;&#45;n10 -->
<g id="edge24" class="edge"><title>n2&#45;&#45;n10</title>
<path fill="none" stroke="#888888" d="M76.726,-176.836C81.1542,-168.717 92.8787,-147.222 97.2896,-139.136"/>
</g>
<!-- n18 -->
<g id="node26" class="node"><title>n18</title>
<ellipse fill="#000000" stroke="#000000" stroke-width="2" cx="171" cy="-136" rx="3" ry="3.5"/>
</g>
<!-- n2&#45;&#45;n18 -->
<g id="edge26" class="edge"><title>n2&#45;&#45;n18</title>
<path fill="none" stroke="#888888" d="M78.1941,-178.536C92.8995,-171.796 153.97,-143.806 168.081,-137.338"/>
</g>
<!-- n4&#45;&#45;n5 -->
<g id="edge34" class="edge"><title>n4&#45;&#45;n5</title>
<path fill="none" stroke="#888888" d="M96.2654,-178.329C84.8605,-171.359 41.1474,-144.646 29.7373,-137.673"/>
</g>
<!-- n4&#45;&#45;n6 -->
<g id="edge36" class="edge"><title>n4&#45;&#45;n6</title>
<path fill="none" stroke="#888888" d="M97.274,-176.836C92.8458,-168.717 81.1213,-147.222 76.7104,-139.136"/>
</g>
<!-- n12 -->
<g id="node36" class="node"><title>n12</title>
<ellipse fill="#000000" stroke="#000000" stroke-width="2" cx="123" cy="-136" rx="3" ry="3.5"/>
</g>
<!-- n4&#45;&#45;n12 -->
<g id="edge38" class="edge"><title>n4&#45;&#45;n12</title>
<path fill="none" stroke="#888888" d="M100.726,-176.836C105.154,-168.717 116.879,-147.222 121.29,-139.136"/>
</g>
<!-- n20 -->
<g id="node38" class="node"><title>n20</title>
<ellipse fill="#000000" stroke="#000000" stroke-width="2" cx="195" cy="-136" rx="3" ry="3.5"/>
</g>
<!-- n4&#45;&#45;n20 -->
<g id="edge40" class="edge"><title>n4&#45;&#45;n20</title>
<path fill="none" stroke="#888888" d="M102.194,-178.536C116.9,-171.796 177.97,-143.806 192.081,-137.338"/>
</g>
<!-- n8&#45;&#45;n9 -->
<g id="edge58" class="edge"><title>n8&#45;&#45;n9</title>
<path fill="none" stroke="#888888" d="M120.265,-178.329C108.86,-171.359 65.1474,-144.646 53.7373,-137.673"/>
</g>
<!-- n8&#45;&#45;n10 -->
<g id="edge60" class="edge"><title>n8&#45;&#45;n10</title>
<path fill="none" stroke="#888888" d="M121.274,-176.836C116.846,-168.717 105.121,-147.222 100.71,-139.136"/>
</g>
<!-- n8&#45;&#45;n12 -->
<g id="edge62" class="edge"><title>n8&#45;&#45;n12</title>
<path fill="none" stroke="#888888" d="M123,-176.249C123,-167.936 123,-148.046 123,-139.742"/>
</g>
<!-- n24 -->
<g id="node57" class="node"><title>n24</title>
<ellipse fill="#000000" stroke="#000000" stroke-width="2" cx="219" cy="-136" rx="3" ry="3.5"/>
</g>
<!-- n8&#45;&#45;n24 -->
<g id="edge64" class="edge"><title>n8&#45;&#45;n24</title>
<path fill="none" stroke="#888888" d="M126.194,-178.536C140.9,-171.796 201.97,-143.806 216.081,-137.338"/>
</g>
<!-- n16&#45;&#45;n17 -->
<g id="edge98" class="edge"><title>n16&#45;&#45;n17</title>
<path fill="none" stroke="#888888" d="M169.274,-176.836C164.846,-168.717 153.121,-147.222 148.71,-139.136"/>
</g>
<!-- n16&#45;&#45;n18 -->
<g id="edge100" class="edge"><title>n16&#45;&#45;n18</title>
<path fill="none" stroke="#888888" d="M171,-176.249C171,-167.936 171,-148.046 171,-139.742"/>
</g>
<!-- n16&#45;&#45;n20 -->
<g id="edge102" class="edge"><title>n16&#45;&#45;n20</title>
<path fill="none" stroke="#888888" d="M172.726,-176.836C177.154,-168.717 188.879,-147.222 193.29,-139.136"/>
</g>
<!-- n16&#45;&#45;n24 -->
<g id="edge104" class="edge"><title>n16&#45;&#45;n24</title>
<path fill="none" stroke="#888888" d="M173.581,-177.634C181.993,-169.923 208.544,-145.585 216.636,-138.167"/>
</g>
<!-- n7 -->
<g id="node28" class="node"><title>n7</title>
<ellipse fill="#000000" stroke="#000000" stroke-width="2" cx="3" cy="-92" rx="3" ry="3.5"/>
</g>
<!-- n3&#45;&#45;n7 -->
<g id="edge28" class="edge"><title>n3&#45;&#45;n7</title>
<path fill="none" stroke="#888888" d="M3,-132.249C3,-123.936 3,-104.046 3,-95.7419"/>
</g>
<!-- n11 -->
<g id="node30" class="node"><title>n11</title>
<ellipse fill="#000000" stroke="#000000" stroke-width="2" cx="27" cy="-92" rx="3" ry="3.5"/>
</g>
<!-- n3&#45;&#45;n11 -->
<g id="edge30" class="edge"><title>n3&#45;&#45;n11</title>
<path fill="none" stroke="#888888" d="M4.72602,-132.836C9.1542,-124.717 20.8787,-103.222 25.2896,-95.1357"/>
</g>
<!-- n19 -->
<g id="node32" class="node"><title>n19</title>
<ellipse fill="#000000" stroke="#000000" stroke-width="2" cx="99" cy="-92" rx="3" ry="3.5"/>
</g>
<!-- n3&#45;&#45;n19 -->
<g id="edge32" class="edge"><title>n3&#45;&#45;n19</title>
<path fill="none" stroke="#888888" d="M6.19409,-134.536C20.8995,-127.796 81.9697,-99.8056 96.0811,-93.3378"/>
</g>
<!-- n5&#45;&#45;n7 -->
<g id="edge42" class="edge"><title>n5&#45;&#45;n7</title>
<path fill="none" stroke="#888888" d="M25.274,-132.836C20.8458,-124.717 9.12133,-103.222 4.71038,-95.1357"/>
</g>
<!-- n13 -->
<g id="node41" class="node"><title>n13</title>
<ellipse fill="#000000" stroke="#000000" stroke-width="2" cx="51" cy="-92" rx="3" ry="3.5"/>
</g>
<!-- n5&#45;&#45;n13 -->
<g id="edge44" class="edge"><title>n5&#45;&#45;n13</title>
<path fill="none" stroke="#888888" d="M28.726,-132.836C33.1542,-124.717 44.8787,-103.222 49.2896,-95.1357"/>
</g>
<!-- n21 -->
<g id="node43" class="node"><title>n21</title>
<ellipse fill="#000000" stroke="#000000" stroke-width="2" cx="123" cy="-92" rx="3" ry="3.5"/>
</g>
<!-- n5&#45;&#45;n21 -->
<g id="edge46" class="edge"><title>n5&#45;&#45;n21</title>
<path fill="none" stroke="#888888" d="M30.1941,-134.536C44.8995,-127.796 105.97,-99.8056 120.081,-93.3378"/>
</g>
<!-- n9&#45;&#45;n11 -->
<g id="edge66" class="edge"><title>n9&#45;&#45;n11</title>
<path fill="none" stroke="#888888" d="M49.274,-132.836C44.8458,-124.717 33.1213,-103.222 28.7104,-95.1357"/>
</g>
<!-- n9&#45;&#45;n13 -->
<g id="edge68" class="edge"><title>n9&#45;&#45;n13</title>
<path fill="none" stroke="#888888" d="M51,-132.249C51,-123.936 51,-104.046 51,-95.7419"/>
</g>
<!-- n25 -->
<g id="node61" class="node"><title>n25</title>
<ellipse fill="#000000" stroke="#000000" stroke-width="2" cx="147" cy="-92" rx="3" ry="3.5"/>
</g>
<!-- n9&#45;&#45;n25 -->
<g id="edge70" class="edge"><title>n9&#45;&#45;n25</title>
<path fill="none" stroke="#888888" d="M54.1941,-134.536C68.8995,-127.796 129.97,-99.8056 144.081,-93.3378"/>
</g>
<!-- n17&#45;&#45;n19 -->
<g id="edge106" class="edge"><title>n17&#45;&#45;n19</title>
<path fill="none" stroke="#888888" d="M144.419,-133.634C136.007,-125.923 109.456,-101.585 101.364,-94.167"/>
</g>
<!-- n17&#45;&#45;n21 -->
<g id="edge108" class="edge"><title>n17&#45;&#45;n21</title>
<path fill="none" stroke="#888888" d="M145.274,-132.836C140.846,-124.717 129.121,-103.222 124.71,-95.1357"/>
</g>
<!-- n17&#45;&#45;n25 -->
<g id="edge110" class="edge"><title>n17&#45;&#45;n25</title>
<path fill="none" stroke="#888888" d="M147,-132.249C147,-123.936 147,-104.046 147,-95.7419"/>
</g>
<!-- n6&#45;&#45;n7 -->
<g id="edge48" class="edge"><title>n6&#45;&#45;n7</title>
<path fill="none" stroke="#888888" d="M72.2654,-134.329C60.8605,-127.359 17.1474,-100.646 5.73729,-93.6728"/>
</g>
<!-- n14 -->
<g id="node46" class="node"><title>n14</title>
<ellipse fill="#000000" stroke="#000000" stroke-width="2" cx="75" cy="-92" rx="3" ry="3.5"/>
</g>
<!-- n6&#45;&#45;n14 -->
<g id="edge50" class="edge"><title>n6&#45;&#45;n14</title>
<path fill="none" stroke="#888888" d="M75,-132.249C75,-123.936 75,-104.046 75,-95.7419"/>
</g>
<!-- n22 -->
<g id="node48" class="node"><title>n22</title>
<ellipse fill="#000000" stroke="#000000" stroke-width="2" cx="171" cy="-92" rx="3" ry="3.5"/>
</g>
<!-- n6&#45;&#45;n22 -->
<g id="edge52" class="edge"><title>n6&#45;&#45;n22</title>
<path fill="none" stroke="#888888" d="M78.1941,-134.536C92.8995,-127.796 153.97,-99.8056 168.081,-93.3378"/>
</g>
<!-- n10&#45;&#45;n11 -->
<g id="edge72" class="edge"><title>n10&#45;&#45;n11</title>
<path fill="none" stroke="#888888" d="M96.2654,-134.329C84.8605,-127.359 41.1474,-100.646 29.7373,-93.6728"/>
</g>
<!-- n10&#45;&#45;n14 -->
<g id="edge74" class="edge"><title>n10&#45;&#45;n14</title>
<path fill="none" stroke="#888888" d="M97.274,-132.836C92.8458,-124.717 81.1213,-103.222 76.7104,-95.1357"/>
</g>
<!-- n26 -->
<g id="node65" class="node"><title>n26</title>
<ellipse fill="#000000" stroke="#000000" stroke-width="2" cx="195" cy="-92" rx="3" ry="3.5"/>
</g>
<!-- n10&#45;&#45;n26 -->
<g id="edge76" class="edge"><title>n10&#45;&#45;n26</title>
<path fill="none" stroke="#888888" d="M102.194,-134.536C116.9,-127.796 177.97,-99.8056 192.081,-93.3378"/>
</g>
<!-- n18&#45;&#45;n19 -->
<g id="edge112" class="edge"><title>n18&#45;&#45;n19</title>
<path fill="none" stroke="#888888" d="M168.265,-134.329C156.86,-127.359 113.147,-100.646 101.737,-93.6728"/>
</g>
<!-- n18&#45;&#45;n22 -->
<g id="edge114" class="edge"><title>n18&#45;&#45;n22</title>
<path fill="none" stroke="#888888" d="M171,-132.249C171,-123.936 171,-104.046 171,-95.7419"/>
</g>
<!-- n18&#45;&#45;n26 -->
<g id="edge116" class="edge"><title>n18&#45;&#45;n26</title>
<path fill="none" stroke="#888888" d="M172.726,-132.836C177.154,-124.717 188.879,-103.222 193.29,-95.1357"/>
</g>
<!-- n15 -->
<g id="node50" class="node"><title>n15</title>
<ellipse fill="#000000" stroke="#000000" stroke-width="2" cx="51" cy="-48" rx="3" ry="3.5"/>
</g>
<!-- n7&#45;&#45;n15 -->
<g id="edge54" class="edge"><title>n7&#45;&#45;n15</title>
<path fill="none" stroke="#888888" d="M5.58069,-89.6344C13.993,-81.9231 40.5442,-57.5845 48.636,-50.167"/>
</g>
<!-- n23 -->
<g id="node52" class="node"><title>n23</title>
<ellipse fill="#000000" stroke="#000000" stroke-width="2" cx="99" cy="-48" rx="3" ry="3.5"/>
</g>
<!-- n7&#45;&#45;n23 -->
<g id="edge56" class="edge"><title>n7&#45;&#45;n23</title>
<path fill="none" stroke="#888888" d="M6.19409,-90.536C20.8995,-83.7961 81.9697,-55.8056 96.0811,-49.3378"/>
</g>
<!-- n11&#45;&#45;n15 -->
<g id="edge78" class="edge"><title>n11&#45;&#45;n15</title>
<path fill="none" stroke="#888888" d="M28.726,-88.8356C33.1542,-80.7173 44.8787,-59.2224 49.2896,-51.1357"/>
</g>
<!-- n27 -->
<g id="node68" class="node"><title>n27</title>
<ellipse fill="#000000" stroke="#000000" stroke-width="2" cx="123" cy="-48" rx="3" ry="3.5"/>
</g>
<!-- n11&#45;&#45;n27 -->
<g id="edge80" class="edge"><title>n11&#45;&#45;n27</title>
<path fill="none" stroke="#888888" d="M30.1941,-90.536C44.8995,-83.7961 105.97,-55.8056 120.081,-49.3378"/>
</g>
<!-- n19&#45;&#45;n23 -->
<g id="edge118" class="edge"><title>n19&#45;&#45;n23</title>
<path fill="none" stroke="#888888" d="M99,-88.2486C99,-79.9357 99,-60.0459 99,-51.7419"/>
</g>
<!-- n19&#45;&#45;n27 -->
<g id="edge120" class="edge"><title>n19&#45;&#45;n27</title>
<path fill="none" stroke="#888888" d="M100.726,-88.8356C105.154,-80.7173 116.879,-59.2224 121.29,-51.1357"/>
</g>
<!-- n12&#45;&#45;n13 -->
<g id="edge82" class="edge"><title>n12&#45;&#45;n13</title>
<path fill="none" stroke="#888888" d="M120.265,-134.329C108.86,-127.359 65.1474,-100.646 53.7373,-93.6728"/>
</g>
<!-- n12&#45;&#45;n14 -->
<g id="edge84" class="edge"><title>n12&#45;&#45;n14</title>
<path fill="none" stroke="#888888" d="M120.419,-133.634C112.007,-125.923 85.4558,-101.585 77.364,-94.167"/>
</g>
<!-- n28 -->
<g id="node72" class="node"><title>n28</title>
<ellipse fill="#000000" stroke="#000000" stroke-width="2" cx="219" cy="-92" rx="3" ry="3.5"/>
</g>
<!-- n12&#45;&#45;n28 -->
<g id="edge86" class="edge"><title>n12&#45;&#45;n28</title>
<path fill="none" stroke="#888888" d="M126.194,-134.536C140.9,-127.796 201.97,-99.8056 216.081,-93.3378"/>
</g>
<!-- n20&#45;&#45;n21 -->
<g id="edge122" class="edge"><title>n20&#45;&#45;n21</title>
<path fill="none" stroke="#888888" d="M192.265,-134.329C180.86,-127.359 137.147,-100.646 125.737,-93.6728"/>
</g>
<!-- n20&#45;&#45;n22 -->
<g id="edge124" class="edge"><title>n20&#45;&#45;n22</title>
<path fill="none" stroke="#888888" d="M193.274,-132.836C188.846,-124.717 177.121,-103.222 172.71,-95.1357"/>
</g>
<!-- n20&#45;&#45;n28 -->
<g id="edge126" class="edge"><title>n20&#45;&#45;n28</title>
<path fill="none" stroke="#888888" d="M196.726,-132.836C201.154,-124.717 212.879,-103.222 217.29,-95.1357"/>
</g>
<!-- n13&#45;&#45;n15 -->
<g id="edge88" class="edge"><title>n13&#45;&#45;n15</title>
<path fill="none" stroke="#888888" d="M51,-88.2486C51,-79.9357 51,-60.0459 51,-51.7419"/>
</g>
<!-- n29 -->
<g id="node75" class="node"><title>n29</title>
<ellipse fill="#000000" stroke="#000000" stroke-width="2" cx="147" cy="-48" rx="3" ry="3.5"/>
</g>
<!-- n13&#45;&#45;n29 -->
<g id="edge90" class="edge"><title>n13&#45;&#45;n29</title>
<path fill="none" stroke="#888888" d="M54.1941,-90.536C68.8995,-83.7961 129.97,-55.8056 144.081,-49.3378"/>
</g>
<!-- n21&#45;&#45;n23 -->
<g id="edge128" class="edge"><title>n21&#45;&#45;n23</title>
<path fill="none" stroke="#888888" d="M121.274,-88.8356C116.846,-80.7173 105.121,-59.2224 100.71,-51.1357"/>
</g>
<!-- n21&#45;&#45;n29 -->
<g id="edge130" class="edge"><title>n21&#45;&#45;n29</title>
<path fill="none" stroke="#888888" d="M124.726,-88.8356C129.154,-80.7173 140.879,-59.2224 145.29,-51.1357"/>
</g>
<!-- n14&#45;&#45;n15 -->
<g id="edge92" class="edge"><title>n14&#45;&#45;n15</title>
<path fill="none" stroke="#888888" d="M73.274,-88.8356C68.8458,-80.7173 57.1213,-59.2224 52.7104,-51.1357"/>
</g>
<!-- n30 -->
<g id="node78" class="node"><title>n30</title>
<ellipse fill="#000000" stroke="#000000" stroke-width="2" cx="171" cy="-48" rx="3" ry="3.5"/>
</g>
<!-- n14&#45;&#45;n30 -->
<g id="edge94" class="edge"><title>n14&#45;&#45;n30</title>
<path fill="none" stroke="#888888" d="M78.1941,-90.536C92.8995,-83.7961 153.97,-55.8056 168.081,-49.3378"/>
</g>
<!-- n22&#45;&#45;n23 -->
<g id="edge132" class="edge"><title>n22&#45;&#45;n23</title>
<path fill="none" stroke="#888888" d="M168.265,-90.3289C156.86,-83.3592 113.147,-56.6456 101.737,-49.6728"/>
</g>
<!-- n22&#45;&#45;n30 -->
<g id="edge134" class="edge"><title>n22&#45;&#45;n30</title>
<path fill="none" stroke="#888888" d="M171,-88.2486C171,-79.9357 171,-60.0459 171,-51.7419"/>
</g>
<!-- n31 -->
<g id="node80" class="node"><title>n31</title>
<ellipse fill="#000000" stroke="#000000" stroke-width="2" cx="123" cy="-4" rx="3" ry="3.5"/>
</g>
<!-- n15&#45;&#45;n31 -->
<g id="edge96" class="edge"><title>n15&#45;&#45;n31</title>
<path fill="none" stroke="#888888" d="M53.7346,-46.3289C65.1395,-39.3592 108.853,-12.6456 120.263,-5.67279"/>
</g>
<!-- n23&#45;&#45;n31 -->
<g id="edge136" class="edge"><title>n23&#45;&#45;n31</title>
<path fill="none" stroke="#888888" d="M100.726,-44.8356C105.154,-36.7173 116.879,-15.2224 121.29,-7.1357"/>
</g>
<!-- n24&#45;&#45;n25 -->
<g id="edge138" class="edge"><title>n24&#45;&#45;n25</title>
<path fill="none" stroke="#888888" d="M216.265,-134.329C204.86,-127.359 161.147,-100.646 149.737,-93.6728"/>
</g>
<!-- n24&#45;&#45;n26 -->
<g id="edge140" class="edge"><title>n24&#45;&#45;n26</title>
<path fill="none" stroke="#888888" d="M217.274,-132.836C212.846,-124.717 201.121,-103.222 196.71,-95.1357"/>
</g>
<!-- n24&#45;&#45;n28 -->
<g id="edge142" class="edge"><title>n24&#45;&#45;n28</title>
<path fill="none" stroke="#888888" d="M219,-132.249C219,-123.936 219,-104.046 219,-95.7419"/>
</g>
<!-- n25&#45;&#45;n27 -->
<g id="edge144" class="edge"><title>n25&#45;&#45;n27</title>
<path fill="none" stroke="#888888" d="M145.274,-88.8356C140.846,-80.7173 129.121,-59.2224 124.71,-51.1357"/>
</g>
<!-- n25&#45;&#45;n29 -->
<g id="edge146" class="edge"><title>n25&#45;&#45;n29</title>
<path fill="none" stroke="#888888" d="M147,-88.2486C147,-79.9357 147,-60.0459 147,-51.7419"/>
</g>
<!-- n26&#45;&#45;n27 -->
<g id="edge148" class="edge"><title>n26&#45;&#45;n27</title>
<path fill="none" stroke="#888888" d="M192.265,-90.3289C180.86,-83.3592 137.147,-56.6456 125.737,-49.6728"/>
</g>
<!-- n26&#45;&#45;n30 -->
<g id="edge150" class="edge"><title>n26&#45;&#45;n30</title>
<path fill="none" stroke="#888888" d="M193.274,-88.8356C188.846,-80.7173 177.121,-59.2224 172.71,-51.1357"/>
</g>
<!-- n27&#45;&#45;n31 -->
<g id="edge152" class="edge"><title>n27&#45;&#45;n31</title>
<path fill="none" stroke="#888888" d="M123,-44.2486C123,-35.9357 123,-16.0459 123,-7.74192"/>
</g>
<!-- n28&#45;&#45;n29 -->
<g id="edge154" class="edge"><title>n28&#45;&#45;n29</title>
<path fill="none" stroke="#888888" d="M216.265,-90.3289C204.86,-83.3592 161.147,-56.6456 149.737,-49.6728"/>
</g>
<!-- n28&#45;&#45;n30 -->
<g id="edge156" class="edge"><title>n28&#45;&#45;n30</title>
<path fill="none" stroke="#888888" d="M216.419,-89.6344C208.007,-81.9231 181.456,-57.5845 173.364,-50.167"/>
</g>
<!-- n29&#45;&#45;n31 -->
<g id="edge158" class="edge"><title>n29&#45;&#45;n31</title>
<path fill="none" stroke="#888888" d="M145.274,-44.8356C140.846,-36.7173 129.121,-15.2224 124.71,-7.1357"/>
</g>
<!-- n30&#45;&#45;n31 -->
<g id="edge160" class="edge"><title>n30&#45;&#45;n31</title>
<path fill="none" stroke="#888888" d="M168.419,-45.6344C160.007,-37.9231 133.456,-13.5845 125.364,-6.16696"/>
</g>
</g>
</svg>
